<svg width="934" height="934" viewBox="0 0 934 934" fill="none" xmlns="http://www.w3.org/2000/svg">
<path d="M466.667 727.253C662.293 727.253 820.587 568.96 820.587 373.333C820.587 177.707 662.293 19.4133 466.667 19.4133C271.04 19.4133 112.747 177.707 112.747 373.333C112.747 568.96 271.04 727.253 466.667 727.253V727.253ZM349.437 401.707L477.12 145.6C480.854 137.386 493.547 140.371 493.547 149.334V309.121C493.547 314.35 497.281 318.079 502.505 318.079L576.426 315.84C582.4 315.84 586.879 321.814 584.64 327.788L461.437 600.308C457.703 609.266 445.011 606.282 445.011 596.573L445.755 422.6C445.755 418.121 442.021 413.642 436.797 413.642H356.906C350.932 414.392 346.453 407.673 349.438 401.699L349.437 401.707Z" fill="#F0B800"/>
</svg>
