<svg width="934" height="934" viewBox="0 0 934 934" fill="none" xmlns="http://www.w3.org/2000/svg">
    <path d="M391.253 704.853C394.238 705.598 396.483 705.598 399.467 705.598C410.665 705.598 420.374 699.624 425.603 689.915L649.603 264.315C654.832 255.357 654.082 244.154 648.858 235.195C643.629 226.237 633.926 221.007 623.473 221.007L548.801 221.013L584.639 79.146C586.879 70.1876 584.639 60.4793 579.41 53.7606C573.436 46.2918 565.222 42.5628 555.514 42.5628L369.594 42.5576C355.406 42.5576 342.714 53.0106 340.474 67.1976L280.74 403.198C279.245 412.156 281.484 421.119 287.458 427.838C293.432 434.556 301.646 438.291 310.604 438.291H383.776L369.593 674.237C368.848 688.425 377.807 701.117 391.249 704.852L391.253 704.853ZM345.707 377.067L394.988 100.8H518.185L482.347 238.933C481.597 241.923 481.597 244.907 481.597 247.897V250.137C481.597 266.563 495.034 280 511.461 280H574.179L436.793 540.587L444.261 408.426C445.006 400.212 442.022 391.999 436.048 386.025C430.074 380.05 422.611 376.316 414.397 376.316H345.7L345.707 377.067Z" fill="#F0B800" stroke="#ffffff" stroke-width="30"/>
</svg>
