<svg viewBox="0 0 173.397 173.397" xml:space="preserve" xmlns="http://www.w3.org/2000/svg" shape-rendering="geometricPrecision" text-rendering="geometricPrecision" image-rendering="optimizeQuality" fill-rule="evenodd" clip-rule="evenodd"><path d="M84.223 81.373c-.75 0-1.349-.601-1.349-1.342V63.99c0-7.724-6.146-14.165-13.85-14.666a16.988 16.988 0 0 1-13.6 6.787 16.994 16.994 0 0 1-13.614-6.787c-7.704.5-13.85 6.942-13.85 14.665v16.04a1.342 1.342 0 1 1-2.684 0V63.99c0-9.409 7.704-17.203 17.174-17.378.459-.011.89.213 1.14.584 2.656 3.902 7.078 6.231 11.834 6.231 4.728 0 9.15-2.33 11.82-6.231.25-.371.682-.591 1.127-.584 9.483.175 17.187 7.97 17.187 17.378v16.04c0 .742-.598 1.343-1.335 1.343zM55.424 14.361c-7.87 0-14.268 6.4-14.268 14.263 0 7.868 6.397 14.267 14.268 14.267 7.857 0 14.254-6.399 14.254-14.267 0-7.863-6.397-14.263-14.254-14.263zm0 31.216c-9.359 0-16.965-7.606-16.965-16.953s7.606-16.948 16.965-16.948c9.345 0 16.938 7.6 16.938 16.948 0 9.347-7.593 16.953-16.938 16.953z" fill="#f0b800" fill-rule="nonzero" class="fill-000000"></path><path d="M37.763 81.373c-.737 0-1.335-.601-1.335-1.342V65.418c0-.742.598-1.343 1.335-1.343.751 0 1.335.6 1.335 1.343v14.613a1.33 1.33 0 0 1-1.335 1.342zM73.07 81.373a1.35 1.35 0 0 1-1.348-1.342V65.418a1.35 1.35 0 0 1 1.349-1.343c.737 0 1.335.6 1.335 1.343v14.613c0 .74-.598 1.342-1.335 1.342zM22.981 146.07c-.75 0-1.349-.6-1.349-1.343V95.682a1.343 1.343 0 1 1 2.684 0v49.045c0 .742-.598 1.343-1.335 1.343zm127.31 0c-.752 0-1.35-.6-1.35-1.343V95.682a1.343 1.343 0 1 1 2.684 0v49.045c0 .742-.598 1.343-1.335 1.343z" fill="#f0b800" fill-rule="nonzero" class="fill-000000"></path><path d="M16.14 81.373a3.298 3.298 0 0 0-3.296 3.297v6.371a3.297 3.297 0 0 0 3.296 3.298h141.118a3.306 3.306 0 0 0 3.295-3.297V84.67a3.307 3.307 0 0 0-3.296-3.297H16.14zm141.118 15.65H16.138a5.99 5.99 0 0 1-5.979-5.981V84.67c0-3.3 2.684-5.983 5.98-5.983h141.118a5.988 5.988 0 0 1 5.98 5.983v6.371a5.99 5.99 0 0 1-5.98 5.983zM52.92 135.859h67.417c.612-4.717 4.353-8.465 9.08-9.07v-13.173c-4.727-.604-8.468-4.35-9.08-9.07H52.921c-.612 4.72-4.353 8.465-9.08 9.07v13.174c4.727.604 8.468 4.352 9.08 9.069zm68.683 2.687H51.656a1.337 1.337 0 0 1-1.335-1.344c0-4.308-3.505-7.812-7.816-7.812-.75 0-1.348-.6-1.348-1.342v-15.687c0-.74.597-1.342 1.348-1.342 4.311 0 7.816-3.507 7.816-7.815a1.34 1.34 0 0 1 1.335-1.344h69.947a1.34 1.34 0 0 1 1.335 1.344c0 4.308 3.504 7.815 7.815 7.815.75 0 1.349.602 1.349 1.342v15.687c0 .741-.598 1.342-1.35 1.342-4.31 0-7.814 3.504-7.814 7.812 0 .746-.598 1.344-1.335 1.344zM16.14 146.07a3.298 3.298 0 0 0-3.296 3.297v6.372a3.298 3.298 0 0 0 3.296 3.297h141.118a3.307 3.307 0 0 0 3.295-3.297v-6.372a3.307 3.307 0 0 0-3.296-3.297H16.14zm141.118 15.651H16.138a5.99 5.99 0 0 1-5.979-5.982v-6.372a5.987 5.987 0 0 1 5.98-5.982h141.118a5.987 5.987 0 0 1 5.98 5.982v6.372a5.99 5.99 0 0 1-5.98 5.982zM141.808 67.788h-16.354a1.342 1.342 0 1 1 0-2.685h15.005V37.37H99.562v27.733h16.367a1.342 1.342 0 1 1 0 2.685H98.227a1.349 1.349 0 0 1-1.35-1.342v-30.42a1.35 1.35 0 0 1 1.35-1.341h43.581c.737 0 1.335.6 1.335 1.341v30.42c0 .744-.598 1.342-1.335 1.342z" fill="#f0b800" fill-rule="nonzero" class="fill-000000"></path><path d="M117.278 70.614h6.828V54.249a2.03 2.03 0 0 0-2.03-2.032h-2.768a2.03 2.03 0 0 0-2.03 2.032v16.365zm8.177 2.685h-9.526c-.737 0-1.335-.6-1.335-1.344V54.25a4.72 4.72 0 0 1 4.714-4.717h2.767a4.72 4.72 0 0 1 4.715 4.717v17.706c0 .743-.598 1.344-1.335 1.344z" fill="#f0b800" fill-rule="nonzero" class="fill-000000"></path><path d="M131.893 81.373c-.737 0-1.335-.601-1.335-1.342v-4.04a2.7 2.7 0 0 0-2.698-2.692H112.8a2.7 2.7 0 0 0-2.698 2.692v4.04a1.342 1.342 0 1 1-2.684 0v-4.04c0-2.965 2.42-5.377 5.382-5.377h15.06c2.962 0 5.382 2.412 5.382 5.377v4.04a1.35 1.35 0 0 1-1.349 1.342z" fill="#f0b800" fill-rule="nonzero" class="fill-000000"></path><path d="M0 0h173.397v173.397H0z" fill="none"></path></svg>