<svg width="934" height="934" viewBox="0 0 934 934" fill="none" xmlns="http://www.w3.org/2000/svg">
<rect width="934" height="934" fill="#F5F5F5"/>
<path fill-rule="evenodd" clip-rule="evenodd" d="M466.667 37.3333C395.385 37.3333 324.093 64.4733 269.813 118.765C161.225 227.353 161.24 403.872 269.829 512.459C271.048 513.683 272.334 514.823 273.574 516.016C273.292 515.745 272.98 515.49 272.699 515.214L272.626 515.287L466.679 709.34L660.386 515.633L660.313 515.545C661.381 514.514 662.469 513.535 663.521 512.482C772.109 403.894 772.109 227.362 663.521 118.776C609.229 64.4837 537.959 37.3437 466.681 37.3437L466.667 37.3333ZM466.667 68.4533C529.864 68.4533 593.068 92.6093 641.373 140.917C737.988 237.537 737.988 393.717 641.373 490.331C544.759 586.951 388.587 586.935 291.973 490.32C195.353 393.7 195.343 237.534 291.958 140.92C340.264 92.6136 403.468 68.4562 466.664 68.4562L466.667 68.4533ZM431.188 132.505L458.688 265.375L459.157 289.609L357.058 297.542L324.886 236H305.302L321.635 302.662C308.661 305.094 294.89 309.974 280.906 315.406C294.89 322.047 309.182 325.781 321.635 328.359L305.302 395.021H324.886L357.058 333.49L459.157 341.412L458.688 365.663L431.188 498.517L445.172 498.054L508.756 385.262H529.772C534.605 385.262 538.506 381.381 538.506 376.543V365.46C538.506 360.621 534.605 356.725 529.772 356.725H524.824L531.887 344.21C532.064 343.324 574.589 344.059 595.277 342.814C605.475 342.199 615.684 339.746 625.116 335.824C634.606 331.881 645.48 327.996 651.277 319.507C652.059 318.366 652.699 317.09 652.329 315.512C652.699 313.934 652.059 312.658 651.277 311.517C645.48 303.028 634.605 299.158 625.116 295.211C615.684 291.294 605.476 288.841 595.277 288.226C574.589 286.981 532.064 287.7 531.887 286.815L524.095 273.003H529.772C534.605 273.003 538.506 269.102 538.506 264.268V253.169C538.506 248.331 534.605 244.451 529.772 244.451H508.012L445.173 132.972L431.188 132.505Z" fill="#F0B800"/>
</svg>
