<svg width="934" height="934" viewBox="0 0 934 934" fill="none" xmlns="http://www.w3.org/2000/svg">
<rect width="934" height="934"/>
<path d="M462 138C327.8 138 219 239.104 219 363.828C219 488.545 469.402 773 469.402 773C469.402 773 705 488.548 705 363.828C705 239.109 596.209 138 462.014 138H462ZM462 183.84C513.364 183.84 562.626 202.803 598.955 236.56C635.274 270.312 655.679 316.092 655.679 363.824C655.679 411.564 635.274 457.345 598.955 491.102C562.631 524.854 513.37 543.817 462 543.817C410.63 543.817 361.374 524.854 325.058 491.102C288.734 457.35 268.329 411.569 268.329 363.824C268.329 316.09 288.734 270.309 325.058 236.56C361.377 202.803 410.638 183.84 462 183.84V183.84Z" fill="#F9C407"/>
<path d="M388.696 260.111L381.208 286.023H428.664V286.176C443.095 286.18 455.301 294.129 460.629 305.611H388.695L381.207 331.523H460.628C455.306 343 443.11 350.938 428.689 350.958H381.202C411.197 389.824 441.187 428.689 471.188 467.555H499.07L429.07 376.866V376.836C458.546 376.669 483.272 357.233 489.649 331.518H535.335L542.797 305.607H489.649C487.896 298.525 484.851 291.876 480.582 286.024H535.309L542.797 260.112L388.696 260.111Z" fill="#F7B50C"/>
</svg>
