<svg width="684" height="433" viewBox="0 0 684 433" fill="none" xmlns="http://www.w3.org/2000/svg">
<path d="M677.667 421.353H677.943C680.632 421.496 682.767 423.724 682.767 426.445C682.767 429.267 680.486 431.544 677.668 431.544L341.709 431.549C341.686 431.546 341.661 431.544 341.634 431.544H140.074C140.068 431.544 140.062 431.544 140.056 431.544C140.05 431.544 140.044 431.544 140.038 431.544H5.66452C2.85152 431.544 0.565582 429.267 0.565582 426.445C0.565582 423.632 2.84723 421.346 5.66452 421.346L136.607 421.341H136.916L137.054 421.064L149.836 395.491L150.117 394.928L149.505 394.781C132.819 390.793 112.033 381.792 101.898 361.528C87.9149 333.544 85.2062 295.146 84.6907 280.827L84.6734 280.345H84.191H72.8629C70.0499 280.345 67.764 278.068 67.764 275.246C67.764 272.433 70.0456 270.147 72.8629 270.147L84.0662 270.142L84.566 270.142V269.642V56.8551C84.566 26.2566 109.462 1.3551 140.066 1.3551C168.93 1.3551 192.707 23.5142 195.313 51.7078L195.35 52.103L195.743 52.1571C214.358 54.7174 228.811 70.5358 229.15 89.7586L229.151 89.7873L229.154 89.8158C229.183 90.0288 229.197 90.2358 229.197 90.4529C229.197 93.2656 226.915 95.5518 224.098 95.5518H224.061H156.864C154.051 95.5518 151.765 93.2702 151.765 90.4529C151.765 71.1063 166.06 55.0622 184.643 52.2392L185.119 52.1669L185.065 51.6882C182.49 29.1364 163.299 11.5516 140.068 11.5516C115.082 11.5516 94.7652 31.8701 94.7652 56.8542V269.654V270.154H95.2652H408.865C411.678 270.154 413.964 272.436 413.964 275.253C413.964 278.076 411.683 280.352 408.865 280.352L397.537 280.357L397.055 280.358L397.037 280.839C396.527 295.155 393.824 333.558 379.83 361.54C369.7 381.805 348.909 390.805 332.223 394.794L331.611 394.94L331.893 395.504L344.684 421.077L344.823 421.353H345.131H471.167H471.605L471.663 420.919L481.371 348.117L481.447 347.551H480.876H459.266C456.453 347.551 454.167 345.274 454.167 342.452C454.167 339.639 456.449 337.353 459.266 337.353H576.865C579.678 337.353 581.964 339.634 581.964 342.452C581.964 345.274 579.683 347.551 576.865 347.551H555.256H554.685L554.76 348.117L564.468 420.919L564.526 421.353H564.964H677.667ZM217.907 85.3533H218.519L218.397 84.7533C215.746 71.7649 204.233 61.9573 190.464 61.952C176.701 61.952 165.187 71.7654 162.537 84.7533L162.414 85.3533H163.027H217.907ZM553.68 421.353H554.251L554.176 420.787L544.478 347.985L544.421 347.551H543.983H523.649H523.149V348.051V420.853V421.353H523.649H553.68ZM492.169 347.551H491.732L491.674 347.985L481.966 420.787L481.89 421.353H482.461H512.44H512.94V420.853V348.051V347.551H512.44H492.169ZM94.9244 280.873C95.4765 294.562 98.1187 330.581 110.671 356.254H110.666L111.027 356.977C118.658 372.244 134.255 379.924 147.91 383.793C161.578 387.666 173.412 387.754 173.677 387.754H308.077C308.331 387.754 320.171 387.64 333.844 383.754C347.502 379.872 363.103 372.192 370.713 356.977L370.713 356.977C383.562 331.257 386.254 294.684 386.817 280.873L386.838 280.352H386.317H95.424H94.9034L94.9244 280.873ZM160.913 396.925L160.559 396.876L160.398 397.197L148.667 420.629L148.305 421.352H149.114H332.594H333.403L333.042 420.629L321.328 397.197L321.168 396.876L320.813 396.925C313.674 397.906 308.697 397.952 308.063 397.952H173.663C173.034 397.952 168.053 397.906 160.913 396.925Z" fill="#F0B800" stroke="#F0B800"/>
<path d="M259.004 213.167L259.005 213.166H257.668C254.85 213.166 252.569 210.88 252.574 208.063V208.062C252.574 205.249 254.856 202.963 257.673 202.963H268.871H269.371V202.463V140.864C269.371 138.051 271.652 135.765 274.47 135.765C274.47 135.765 274.47 135.765 274.47 135.765L308.074 135.77H308.074C310.886 135.77 313.173 138.052 313.173 140.869V152.067V152.567H313.673H341.673C344.485 152.567 346.771 154.849 346.771 157.666V202.469V202.969H347.271H358.469C361.282 202.969 363.568 205.25 363.568 208.068C363.568 210.88 361.287 213.167 358.469 213.167H259.004ZM336.568 163.265V162.765H336.068H313.667H313.167V163.265V202.463V202.963H313.667H336.068H336.568V202.463V163.265ZM280.068 145.968H279.568V146.468V202.468V202.968H280.068H302.469H302.969V202.468V146.468V145.968H302.469H280.068Z" fill="#F0B800" stroke="#F0B800"/>
<path d="M489.445 263.553L489.36 264.126L487.824 274.51C487.586 276.148 488.156 277.808 489.361 278.951L489.361 278.951C490.318 279.861 491.574 280.35 492.876 280.35C493.212 280.35 493.543 280.321 493.865 280.256L493.866 280.256L577.865 263.453L489.445 263.553ZM489.445 263.553H488.865H459.368M489.445 263.553H459.368M459.368 263.553L459.367 263.553H459.266C457.764 263.553 456.351 262.89 455.377 261.74L455.376 261.739C454.404 260.597 453.986 259.089 454.233 257.604C454.233 257.604 454.233 257.604 454.233 257.604L487.828 56.0276C487.844 55.9656 487.859 55.8985 487.873 55.8415L487.873 55.8416L487.875 55.829C491.578 37.6746 503.186 26.5464 518.068 26.5464C532.55 26.5464 543.58 37.0302 548.219 55.6102L548.219 55.6103L548.222 55.6221C548.251 55.7267 548.27 55.8224 548.294 55.9405C548.3 55.9669 548.305 55.9944 548.311 56.0234L581.908 257.613C581.908 257.613 581.908 257.614 581.909 257.614C582.354 260.326 580.566 262.907 577.866 263.453L459.368 263.553ZM497.881 57.7918L497.879 57.8014L497.877 57.8111L465.393 252.777L465.296 253.359H465.886H490.542H490.973L491.037 252.932L502.766 173.719L502.271 173.646L502.766 173.719C503.14 171.187 505.322 169.365 507.802 169.365C508.062 169.365 508.306 169.375 508.542 169.415L508.542 169.415L508.552 169.417C511.337 169.829 513.267 172.42 512.855 175.208L499.084 268.129L498.98 268.832L499.677 268.693L570.551 254.521L571.026 254.426L570.947 253.948L538.28 57.9351L538.276 57.9143L538.271 57.8938C537.05 53.1035 535.078 47.8397 531.879 43.7639C528.669 39.6725 524.211 36.768 518.068 36.768C510.711 36.768 505.907 40.8138 502.836 45.4388C499.774 50.0511 498.402 55.2798 497.881 57.7918Z" fill="#F0B800" stroke="#F0B800"/>
</svg>
