<svg viewBox="0 0 85 85" xml:space="preserve" xmlns="http://www.w3.org/2000/svg"><path d="M58.883 40.014h1.803c4.398 0 7.967 3.337 7.967 7.455 0 4.115-3.566 7.451-7.967 7.451h-1.803M16.348 73.953h45.867" fill="none" stroke="#f0b800" stroke-miterlimit="10" stroke-width="2.5" class="stroke-394553"></path><path d="M58.533 58.418c0 4.652-3.809 8.459-8.459 8.459H28.489c-4.653 0-8.459-3.807-8.459-8.459V34.034h38.505v24.384h-.002z" fill="none" stroke="#f0b800" stroke-linejoin="round" stroke-miterlimit="10" stroke-width="2.5" class="stroke-394553"></path><path d="M51.301 11.047H35.21c-2.054 0-3.734 1.839-3.734 3.893s1.68 3.891 3.734 3.891h7.212c1.596 0 2.904 1.389 2.904 2.987s-1.309 3-2.904 3h-3.165a2.913 2.913 0 0 0-2.905 2.904v.489" fill="none" stroke="#f0b800" stroke-linecap="round" stroke-linejoin="round" stroke-width="2.5" class="stroke-394553"></path><path fill="none" stroke="#f0b800" stroke-linecap="round" stroke-linejoin="round" stroke-miterlimit="10" stroke-width="2.5" d="M26.494 40.487v9.837" class="stroke-394553"></path></svg>