<svg width="934" height="934" viewBox="0 0 934 934" fill="none" xmlns="http://www.w3.org/2000/svg">
<path d="M709.453 462.347C706.188 454.065 698.604 448.232 689.855 447.295C557.089 433.409 491.521 526.977 490.935 527.909C489.768 529.659 489.653 531.993 490.586 533.857C491.638 535.722 493.502 536.888 495.721 536.888H630.708C631.76 536.888 632.807 536.539 633.739 535.956L700.936 493.721C710.739 487.539 714.702 475.404 710.504 464.669L709.453 462.347ZM694.869 484.049L629.067 525.352H507.733C527.452 503.071 587.181 448.003 688.68 458.737C693.112 459.206 697.081 462.237 698.831 466.555L699.763 469.003C701.987 474.597 699.888 480.899 694.868 484.05L694.869 484.049Z" fill="#F0B800"/>
<path d="M355.72 284.08H280.584C277.433 284.08 274.865 286.648 274.865 289.799V316.163C274.865 340.08 294.229 359.444 318.147 359.444C342.064 359.444 361.428 340.08 361.428 316.163V289.799C361.433 286.648 358.865 284.08 355.72 284.08H355.72ZM350.001 316.163C350.001 333.663 335.767 348.012 318.152 348.012C300.652 348.012 286.303 333.777 286.303 316.163V295.632H350L350.001 316.163Z" fill="#F0B800"/>
<path d="M836.733 400.053C809.785 387.569 777.233 413.121 763.468 425.835L758.218 410.668C757.166 407.637 753.9 406.116 750.984 407.168L706.536 422.22C659.4 414.751 604.218 422.22 552.776 440.887L551.14 368.439C550.906 356.657 550.208 344.871 549.625 334.136L609.125 363.303C609.942 363.652 610.76 363.886 611.692 363.886C613.677 363.886 615.541 362.954 616.593 361.204L678.192 261.454C679.593 259.236 679.244 256.439 677.609 254.569L583.806 151.433C583.806 151.433 583.691 151.433 583.691 151.318C583.577 151.204 583.342 151.084 583.223 150.969C582.754 150.62 582.29 150.271 581.707 150.037L497.707 112.006C497.473 111.892 497.238 112.006 497.009 111.892C496.54 111.777 495.957 111.657 495.374 111.657C494.905 111.657 494.556 111.657 494.207 111.772C493.389 111.887 492.572 112.355 491.874 112.824C491.759 112.939 491.639 112.939 491.525 112.939C420.941 172.324 352.338 172.439 281.765 113.407C281.765 113.407 281.65 113.407 281.65 113.293C280.832 112.475 279.786 111.777 278.499 111.543C277.447 111.308 276.4 111.543 275.468 111.892H275.119L190.77 149.922C190.421 150.037 190.301 150.391 190.072 150.506C189.723 150.74 189.254 150.975 188.905 151.324L188.191 151.667L94.8581 254.334C93.1081 256.198 92.8737 259.001 94.2748 261.219L155.873 360.969C156.926 362.719 158.79 363.651 160.775 363.651C161.592 363.651 162.525 363.417 163.342 363.068L222.957 333.901C222.259 344.635 221.676 356.417 221.441 368.317L215.608 629.41C215.608 630.926 216.191 632.442 217.243 633.608C218.296 634.66 219.811 635.358 221.327 635.358H377.42H377.535H377.649H551.129H551.244H698.711C701.862 635.358 704.429 632.791 704.429 629.639V606.306C704.429 603.155 701.862 600.587 698.711 600.587H695.794L739.658 563.254C743.507 559.988 745.491 555.202 745.377 550.186L741.877 474.238L770.809 464.207C772.21 463.738 773.376 462.691 774.074 461.29C774.772 459.889 774.892 458.374 774.309 456.858L767.658 437.722C780.491 424.889 811.174 400.738 831.939 410.539C834.856 411.941 838.241 410.654 839.522 407.737C840.814 404.711 839.527 401.326 836.731 400.045L836.733 400.053ZM609.347 350.584L548.68 320.835C548.211 314.533 547.748 308.236 547.279 301.236C540.748 214.433 568.279 175.585 579.248 163.569L666.051 259.001L609.347 350.584ZM489.997 128.451C489.763 177.8 443.331 217.815 386.164 217.815C328.997 217.815 282.565 177.679 282.331 128.331C351.049 181.888 420.691 182.003 489.997 128.45V128.451ZM162.864 350.584L106.28 259L193.083 163.448C203.583 175 231.697 214.547 225.052 301.235C224.583 307.766 224 314.183 223.651 320.719L162.864 350.584ZM232.749 368.667C233.098 353.265 234.031 337.864 234.848 324.803V324.334V324.1C235.317 316.751 235.9 309.402 236.484 302.168C243.135 213.97 215.718 171.736 202.765 157.034L270.901 126.352C270.901 127.049 270.786 127.518 270.786 128.216C270.786 184.101 322.589 229.481 386.172 229.481C449.755 229.481 501.557 184.096 501.557 128.216C501.557 127.518 501.443 126.935 501.443 126.352L569.579 157.154C556.396 171.972 529.215 213.972 535.98 303.221C536.563 309.986 537.032 316.872 537.495 323.872C537.381 324.569 537.495 325.273 537.61 325.97C538.428 338.804 539.36 353.736 539.709 368.788L541.459 445.318C463.762 476.349 396.672 532.704 381.739 600.718H377.541C374.39 600.718 371.822 603.286 371.822 606.437V624.052H227.036L232.749 368.667ZM692.883 623.813H551.363H551.248H383.128V612.032H692.875L692.883 623.813ZM393.403 600.48C395.153 593.131 397.601 585.783 400.752 578.663H703.618L677.952 600.48H393.403ZM732.083 554.397L717.031 567.116L406.471 567.111C432.252 519.747 485.689 478.559 547.524 454.059C548.691 453.944 549.623 453.476 550.441 452.892C600.493 433.528 655.79 425.242 706.187 433.642C707.12 433.756 729.286 437.256 729.87 466.308L733.839 550.543C733.834 552.064 733.25 553.465 732.084 554.397L732.083 554.397ZM740.947 462.231C739.546 445.2 731.728 434.58 723.213 428.632L749.349 419.767L761.599 455.117L740.947 462.231Z" fill="#F0B800"/>
</svg>
