<svg width="934" height="934" viewBox="0 0 934 934" fill="none" xmlns="http://www.w3.org/2000/svg">
<rect width="934" height="934" fill="#F5F5F5"/>
<path d="M374.365 229.442C331.447 229.442 295.996 264.272 295.996 307.811V351.974C295.996 360.062 302.218 366.279 310.301 366.279C318.388 366.279 324.605 360.057 324.605 351.974V307.811C324.605 297.238 328.336 287.286 333.933 279.198V510.577C333.933 520.529 342.02 527.992 351.349 527.992C361.302 527.992 368.764 519.905 368.764 510.577V376.849H379.338V510.577C379.338 520.529 387.425 527.992 396.753 527.992C406.081 527.992 414.169 519.905 414.169 510.577V279.198C419.766 287.285 423.497 297.233 423.497 307.811V351.974C423.497 360.062 429.719 366.279 437.802 366.279C445.889 366.279 452.106 360.057 452.106 351.974V307.811C452.735 264.897 417.284 229.442 374.367 229.442H374.365Z" fill="#F0B800"/>
<path d="M413.55 180.305C413.55 201.946 396.009 219.487 374.369 219.487C352.728 219.487 335.182 201.946 335.182 180.305C335.182 158.664 352.728 141.119 374.369 141.119C396.009 141.119 413.55 158.664 413.55 180.305Z" fill="#F0B800"/>
<path d="M700.955 298C667.805 298 641 324.803 641 357.955V391.809C641 397.452 645.94 402.386 651.578 402.386C657.221 402.386 662.156 397.447 662.156 391.809V357.955C662.156 349.492 664.975 341.734 669.211 336.091V513.126C669.211 520.885 675.557 526.528 682.613 526.528C690.372 526.528 696.015 520.181 696.015 513.126V410.856H703.774V513.126C703.774 520.885 710.121 526.528 717.176 526.528C724.935 526.528 730.579 520.181 730.579 513.126V336.091C734.81 342.438 737.634 350.196 737.634 357.955V391.809C737.634 397.452 742.574 402.386 748.212 402.386C753.855 402.386 758.789 397.447 758.789 391.809V357.955C760.91 324.805 734.106 298 700.956 298H700.955Z" fill="#F0B800"/>
<path d="M737.006 256.5C737.006 277.215 720.215 294 699.5 294C678.79 294 662 277.215 662 256.5C662 235.791 678.79 219 699.5 219C720.215 219 737.006 235.791 737.006 256.5" fill="#F0B800"/>
<path d="M631.246 292.885C625.024 256.188 593.305 229.441 555.983 229.441C518.662 229.441 486.943 256.184 480.721 292.885L470.768 349.486C469.523 356.949 474.499 364.415 482.587 365.657C490.049 366.902 497.515 361.926 498.757 353.838L508.71 297.236C509.955 291.015 512.441 284.798 515.552 279.821V326.47L491.295 419.147C488.808 427.854 495.651 436.562 504.358 436.562H515.552V509.955C515.552 519.907 523.639 527.37 532.968 527.37C542.92 527.37 550.383 519.283 550.383 509.955V436.562H560.956V509.955C560.956 519.907 569.044 527.37 578.372 527.37C587.7 527.37 595.788 519.283 595.788 509.955V436.562H606.981C616.309 436.562 622.531 427.855 620.045 419.147L595.788 326.47V279.821C598.899 284.797 601.385 291.014 602.63 297.236L612.583 353.838C613.828 360.68 620.045 365.657 626.266 365.657H628.752C636.215 364.412 641.816 356.949 640.571 349.486L631.246 292.885Z" fill="#F0B800"/>
<path d="M595.171 180.305C595.171 201.946 577.625 219.487 555.984 219.487C534.344 219.487 516.798 201.946 516.798 180.305C516.798 158.664 534.344 141.119 555.984 141.119C577.625 141.119 595.171 158.664 595.171 180.305Z" fill="#F0B800"/>
<path d="M264 261.998C264 280.225 249.225 294.995 230.998 294.995C212.775 294.995 198 280.225 198 261.998C198 243.775 212.775 229 230.998 229C249.225 229 264 243.775 264 261.998" fill="#F0B800"/>
<path d="M287.235 348.372C282.427 320.913 259.086 301 230.937 301C203.478 301 179.447 320.907 174.638 348.372L167.086 390.936C166.401 396.429 169.83 401.922 176.013 403.291C181.506 403.976 186.998 400.547 188.368 394.365L195.92 351.801C196.605 346.993 198.664 342.874 200.728 338.755V373.082L183.565 441.736C181.505 447.913 186.309 454.781 193.176 454.781H200.728V509.705C200.728 517.257 206.906 522.75 213.773 522.75C221.326 522.75 226.819 516.573 226.819 509.705V454.781H234.371V509.705C234.371 517.257 240.549 522.75 247.416 522.75C254.968 522.75 260.462 516.573 260.462 509.705V454.781H268.014C274.881 454.781 279.684 448.603 277.625 441.736L260.462 373.082V338.755C263.206 342.874 264.58 346.992 265.27 351.801L272.822 394.365C273.507 399.173 278.315 403.291 283.118 403.291H285.177C290.67 402.606 294.788 397.113 294.104 390.936L287.235 348.372Z" fill="#F0B800"/>
</svg>
