<svg width="934" height="934" viewBox="0 0 934 934" fill="none" xmlns="http://www.w3.org/2000/svg">
<path d="M740.827 186.667H192.493C190.946 186.667 189.462 187.281 188.368 188.375C187.274 189.469 186.66 190.953 186.66 192.5V495.833C186.66 497.38 187.275 498.865 188.368 499.958C189.462 501.052 190.946 501.667 192.493 501.667H443.32V513.333H437.487C437.117 513.333 436.747 513.37 436.382 513.437L284.716 542.604C281.971 543.135 279.987 545.536 279.987 548.333V554.167C279.987 555.714 280.601 557.198 281.695 558.292C282.789 559.386 284.273 560 285.82 560L309.68 559.979L437.487 548.333L495.293 548.313L624.153 560H647.487C649.034 560 650.518 559.385 651.612 558.292C652.706 557.198 653.32 555.714 653.32 554.167V548.333C653.32 545.536 651.336 543.135 648.591 542.604L495.817 513.333H489.984V501.667H740.811C742.358 501.667 743.842 501.052 744.936 499.958C746.03 498.865 746.644 497.38 746.644 495.833V192.5C746.644 190.953 746.03 189.469 744.936 188.375C743.842 187.281 742.358 186.667 740.811 186.667L740.827 186.667ZM734.993 490H198.327V198.333H734.993V490ZM495.82 536.667L436.96 536.688L323.507 547.021L438.043 525L446.933 524.984H446.939C449.084 526.067 451.418 526.749 453.813 526.999C458.069 527.526 462.36 527.776 466.652 527.739C473.444 528.359 480.283 527.39 486.636 524.911L494.714 524.895L609.615 546.989L495.82 536.667ZM478.32 515.416C470.565 516.27 462.741 516.27 454.987 515.416V501.667H478.32V515.416Z" fill="#F0B800"/>
<path d="M723.333 210H210V478.333H723.333V210ZM711.667 466.667H221.667V221.667H711.667V466.667Z" fill="#F0B800"/>
<path d="M250.827 297.493C252.374 297.493 253.858 296.879 254.952 295.785L295.785 254.952C298.025 252.665 298.004 249.004 295.743 246.743C293.483 244.483 289.822 244.462 287.535 246.702L246.702 287.535C245.035 289.207 244.535 291.712 245.441 293.894C246.342 296.072 248.467 297.493 250.827 297.493L250.827 297.493Z" fill="#F0B800"/>
<path d="M250.827 332.507C252.374 332.507 253.858 331.892 254.952 330.798L330.785 254.965C333.025 252.679 333.004 249.017 330.743 246.757C328.483 244.496 324.822 244.476 322.535 246.715L246.702 322.548C245.035 324.22 244.535 326.726 245.441 328.908C246.342 331.085 248.467 332.507 250.827 332.507L250.827 332.507Z" fill="#F0B800"/>
</svg>
