<svg viewBox="0 0 64 64" xml:space="preserve" xmlns="http://www.w3.org/2000/svg"><path fill="none" stroke="#f0b800" stroke-linecap="round" stroke-linejoin="round" stroke-miterlimit="10" stroke-width="2" d="M1.986 60.84H42.66l12.284-28.593M62.192 28.924a3.324 3.324 0 0 1-3.323 3.323h-8.355a3.323 3.323 0 0 1-3.323-3.323h0a3.323 3.323 0 0 1 3.323-3.322h8.355a3.322 3.322 0 0 1 3.323 3.322h0z" class="stroke-231f20"></path><circle cx="28.464" cy="9.677" fill="none" r="6.645" stroke="#f0b800" stroke-linecap="round" stroke-linejoin="round" stroke-miterlimit="10" stroke-width="2" class="stroke-231f20"></circle><path d="m24.242 15.247-10.463 3.941c-.923.35-1.634.956-2.036 1.64-.006.004-.007.01-.01.017a2.494 2.494 0 0 0-.34 1.021c-.015.118-.031.238-.031.361v8.731c0 1.38.99 2.497 2.215 2.497 1.224 0 2.215-1.117 2.215-2.497v-7.165l5.98-2.256-2.38 17.086-3.667 10.639-6.637-4.037c-1.377-.836-3.003-.666-3.64.379s-.038 2.57 1.339 3.406l8.709 5.297c1.377.838 3.007.668 3.643-.377.139-.229.825-1.658 1.025-2.221l4.514-12.701c.092-.252.162-.504.213-.754l8.296 5.533-.064 12.34c-.009 2.014 1.104 3.646 2.491 3.654 1.386.008 2.518-1.615 2.527-3.629l.063-12.738c.001-.145-.016-.281-.027-.422.104-.762-.189-1.596-.793-2.275-.251-.332-8.623-5.91-8.623-5.91l4.418-11.936 3.311 3.423c.7.723 1.598 1.083 2.423 1.073.046.003.091.003.137.003l.036-.003c.979-.006 2.019-.625 2.635-1.698l5.413-9.376c.856-1.477.575-3.238-.624-3.931-1.202-.694-2.865-.055-3.719 1.423l-4.271 7.393-5.954-6.152" fill="none" stroke="#f0b800" stroke-linecap="round" stroke-linejoin="round" stroke-miterlimit="10" stroke-width="2" class="stroke-231f20"></path></svg>