<svg width="934" height="934" viewBox="0 0 934 934" fill="none" xmlns="http://www.w3.org/2000/svg">
<rect width="934" height="934" fill="#F5F5F5"/>
<path d="M781.667 308.28V279.999H758.333V303.332H711.667V256.665H735V233.332H571.667V256.665H595V303.332H548.333C516.167 303.332 490 329.499 490 361.665V373.332H443.333V361.665C443.333 329.499 417.167 303.332 385 303.332H291.667C259.5 303.332 233.333 329.499 233.333 361.665V373.332H175C142.833 373.332 116.667 399.499 116.667 431.665V618.332C116.667 650.499 142.833 676.665 175 676.665V688.332C175 707.629 190.703 723.332 210 723.332H233.333C252.631 723.332 268.333 707.629 268.333 688.332V676.665H408.333V688.332C408.333 707.629 424.036 723.332 443.333 723.332H466.667C485.964 723.332 501.667 707.629 501.667 688.332V676.665C520.672 676.665 537.427 667.389 548.079 653.285C548.172 653.285 548.24 653.332 548.334 653.332H571.667V664.999C571.667 684.296 587.37 699.999 606.667 699.999C625.965 699.999 641.667 684.296 641.667 664.999V653.332H676.667V664.999C676.667 684.296 692.37 699.999 711.667 699.999C730.965 699.999 746.667 684.296 746.667 664.999V653.332H758.334C790.501 653.332 816.667 627.166 816.667 594.999V361.666C816.667 337.806 802.235 317.311 781.667 308.28L781.667 308.28ZM618.333 256.665H688.333V303.332H618.333V256.665ZM513.333 361.665C513.333 342.368 529.036 326.665 548.333 326.665H758.333C777.631 326.665 793.333 342.368 793.333 361.665V419.999H558.827C558.629 419.009 558.207 418.108 557.952 417.139C557.332 414.77 556.681 412.426 555.795 410.186C555.28 408.905 554.65 407.702 554.056 406.462C553.097 404.478 552.082 402.54 550.915 400.686C550.155 399.473 549.327 398.332 548.488 397.186C547.217 395.473 545.874 393.837 544.426 392.264C543.457 391.212 542.488 390.202 541.452 389.217C539.879 387.738 538.186 386.395 536.446 385.087C535.347 384.259 534.274 383.405 533.123 382.66C531.149 381.389 529.061 380.327 526.931 379.301C525.847 378.775 524.821 378.155 523.702 377.702C520.587 376.431 517.353 375.405 513.993 374.681C513.785 374.634 513.587 374.54 513.373 374.494C513.363 374.494 513.353 374.483 513.337 374.483L513.333 361.665ZM560 443.332H793.333V513.332H560V443.332ZM420 653.332H233.333V396.665H443.333V653.332H420ZM256.667 361.665C256.667 342.368 272.369 326.665 291.667 326.665H385C404.297 326.665 420 342.368 420 361.665V373.332H256.667V361.665ZM140 618.332V431.665C140 412.368 155.703 396.665 175 396.665H210V653.332H175C155.703 653.332 140 637.629 140 618.332ZM245 688.332C245 694.769 239.76 699.999 233.333 699.999H210C203.573 699.999 198.333 694.769 198.333 688.332V676.665H245V688.332ZM478.333 688.332C478.333 694.769 473.094 699.999 466.667 699.999H443.333C436.906 699.999 431.667 694.769 431.667 688.332V676.665H478.333V688.332ZM501.667 653.332H466.667V396.665H501.667C520.964 396.665 536.667 412.368 536.667 431.665V618.332C536.667 637.629 520.964 653.332 501.667 653.332ZM618.333 664.999C618.333 671.436 613.094 676.665 606.667 676.665C600.24 676.665 595 671.436 595 664.999V653.332H618.333V664.999ZM723.333 664.999C723.333 671.436 718.094 676.665 711.667 676.665C705.24 676.665 700 671.436 700 664.999V653.332H723.333V664.999ZM758.333 629.999H560V536.665H793.333V594.999C793.333 614.296 777.631 629.999 758.333 629.999Z" fill="#F0B800"/>
<path d="M347.667 471.333C343.271 465.453 333.396 465.453 329 471.333L294 518C290.885 522.141 290.885 527.849 294 531.989L329 578.656C331.193 581.593 334.656 583.323 338.333 583.323C342.01 583.323 345.464 581.593 347.667 578.656L382.667 531.989C385.781 527.849 385.781 522.14 382.667 518L347.667 471.333ZM338.333 552.219L317.917 525L338.333 497.781L358.749 525L338.333 552.219Z" fill="#F0B800"/>
<path d="M466.667 23.3333C434.5 23.3333 408.333 49.5 408.333 81.6666V105H396.667C390.229 105 385 110.214 385 116.667V256.667C385 263.12 390.229 268.333 396.667 268.333H536.667C543.104 268.333 548.333 263.12 548.333 256.667V116.667C548.333 110.214 543.104 105 536.667 105H525V81.6666C525 49.5 498.833 23.3333 466.667 23.3333ZM431.667 81.6666C431.667 62.3693 447.369 46.6666 466.667 46.6666C485.964 46.6666 501.667 62.3693 501.667 81.6666V105H431.667V81.6666ZM525 245H408.333V128.333H525V245Z" fill="#F0B800"/>
<path d="M466.667 151.667C447.369 151.667 431.667 167.369 431.667 186.667C431.667 205.964 447.369 221.667 466.667 221.667C485.964 221.667 501.667 205.964 501.667 186.667C501.667 167.369 485.964 151.667 466.667 151.667ZM466.667 198.333C460.24 198.333 455 193.104 455 186.667C455 180.229 460.24 175 466.667 175C473.094 175 478.333 180.229 478.333 186.667C478.333 193.104 473.094 198.333 466.667 198.333Z" fill="#F0B800"/>
<path d="M186.667 233.333H210V256.667H186.667V233.333Z" fill="#F0B800"/>
<path d="M186.667 186.667H210V210H186.667V186.667Z" fill="#F0B800"/>
<path d="M186.667 140H210V163.333H186.667V140Z" fill="#F0B800"/>
<path d="M233.333 140H256.667V163.333H233.333V140Z" fill="#F0B800"/>
<path d="M280 140H303.333V163.333H280V140Z" fill="#F0B800"/>
<path d="M326.667 140H350V163.333H326.667V140Z" fill="#F0B800"/>
<path d="M571.667 140H595V163.333H571.667V140Z" fill="#F0B800"/>
<path d="M186.667 280H210V303.333H186.667V280Z" fill="#F0B800"/>
<path d="M618.333 140H641.667V163.333H618.333V140Z" fill="#F0B800"/>
<path d="M665 140H688.333V163.333H665V140Z" fill="#F0B800"/>
<path d="M711.667 140H735V163.333H711.667V140Z" fill="#F0B800"/>
<path d="M758.333 140H781.667V163.333H758.333V140Z" fill="#F0B800"/>
<path d="M758.333 186.667H781.667V210H758.333V186.667Z" fill="#F0B800"/>
<path d="M758.333 233.333H781.667V256.667H758.333V233.333Z" fill="#F0B800"/>
<path d="M186.667 326.667H210V350H186.667V326.667Z" fill="#F0B800"/>
</svg>
