<svg width="934" height="934" viewBox="0 0 934 934" fill="none" xmlns="http://www.w3.org/2000/svg">
<path d="M198.735 29.8693C168.401 29.7756 146 52.172 146 81.672V619.979C146 642.052 160.932 656.984 183.568 657.077H220.667V709.343C220.667 713.254 224.224 716.811 228.135 716.811H302.802C306.714 716.811 310.271 713.254 310.271 709.343V657.077H623.871V709.343C623.871 713.254 627.428 716.811 631.34 716.811H706.006C709.918 716.811 713.475 713.254 713.475 709.343V657.077H750.574C773.246 656.978 788.178 642.047 788.142 619.744V82.6106C788.142 57.4653 774.533 42.756 761.543 36.1786C748.554 29.6005 735.877 29.8765 735.877 29.8765C556.823 29.8713 377.783 29.8817 198.743 29.8765L198.735 29.8693ZM198.735 44.8013H735.868C735.868 44.8013 745.592 44.7024 755.004 49.468C764.416 54.2336 773.201 62.369 773.201 82.604V619.737C773.238 634.576 765.769 642.04 750.565 642.139H183.565C168.399 642.04 160.935 634.576 160.929 619.972V81.6653C160.929 59.6386 175.867 44.7013 198.732 44.8013H198.735ZM211.802 97.0667C208.381 97.7177 205.672 101.051 205.735 104.535V582.402C205.735 586.308 209.292 589.866 213.203 589.871H691.07C694.982 589.871 698.539 586.314 698.539 582.402V530.137H713.471C717.382 530.137 720.94 526.579 720.94 522.668V433.069C720.94 429.158 717.382 425.601 713.471 425.601H698.539V253.867H713.471C717.382 253.867 720.94 250.31 720.94 246.398V156.8C720.94 152.888 717.382 149.331 713.471 149.331H698.539V104.528C698.539 100.617 694.982 97.0595 691.07 97.0595H211.803L211.802 97.0667ZM220.667 111.999H683.6V149.332H667.267C663.845 149.983 661.137 153.316 661.199 156.801V246.399C661.199 250.311 664.757 253.868 668.668 253.868H683.6V425.602H667.267C663.845 426.253 661.136 429.586 661.199 433.07V522.669C661.199 526.575 664.756 530.133 668.668 530.138H683.6V574.941H220.666L220.667 111.999ZM676.134 164.264H683.602V238.931H676.134V164.264ZM698.535 164.264H706.004V238.931H698.535V164.264ZM377.482 223.9C373.815 224.358 369.768 226.942 369.992 231.463V284.197C359.117 285.577 349.085 289.89 340.825 296.333L303.492 258.999C301.815 257.161 299.179 256.249 296.726 256.666C291.299 257.65 288.94 265.755 292.992 269.499L330.325 306.833C323.872 315.109 319.565 325.103 318.19 335.999H264.054C260.142 336.364 256.918 340.255 257.288 344.166C257.653 348.077 261.543 351.301 265.455 350.932H318.19C319.575 361.848 323.835 371.844 330.325 380.098L292.992 417.197C290.179 419.947 290.127 425.004 292.877 427.811C295.627 430.624 300.684 430.676 303.492 427.931L340.825 390.598C349.07 396.983 359.148 401.129 369.992 402.499V455.468C369.934 459.416 373.512 463.041 377.46 463.041C381.408 463.041 384.981 459.411 384.929 455.468V402.499C395.773 401.129 405.851 396.983 414.096 390.598L451.429 427.931C454.242 430.681 459.299 430.624 462.044 427.811C464.794 425.004 464.736 419.942 461.929 417.197L424.596 380.098C431.086 371.843 435.341 361.848 436.731 350.932H489.466C493.409 350.984 497.039 347.411 497.039 343.463C497.039 339.52 493.409 335.942 489.466 335.994H436.731C435.356 325.098 431.049 315.103 424.596 306.827L461.929 269.494C466.466 265.202 462.059 255.879 455.862 256.661C454.174 256.9 452.58 257.739 451.429 258.994L414.096 296.327C405.836 289.885 395.804 285.572 384.929 284.192V231.457C384.95 225.889 380.773 224.035 377.481 223.895L377.482 223.9ZM369.992 299.129V325.493L351.325 306.827C356.773 302.889 363.07 300.28 369.992 299.129V299.129ZM384.924 299.129C391.846 300.28 398.143 302.895 403.591 306.827L384.924 325.494V299.129ZM341.06 317.561L359.492 335.993H333.356C334.476 329.191 337.257 322.962 341.054 317.561H341.06ZM413.863 317.561C417.66 322.962 420.441 329.192 421.561 335.993H395.425L413.863 317.561ZM333.363 350.925H359.499L341.067 369.357C337.213 363.946 334.499 357.784 333.369 350.925H333.363ZM395.431 350.925H421.567C420.436 357.785 417.723 363.946 413.869 369.357L395.431 350.925ZM369.999 361.425V387.556C363.139 386.426 356.978 383.712 351.567 379.858L369.999 361.425ZM384.931 361.425L403.363 379.857C397.951 383.711 391.79 386.425 384.931 387.555V361.425ZM676.131 440.524H683.6V515.191H676.131V440.524ZM698.532 440.524H706.001V515.191H698.532V440.524ZM235.599 657.057H295.333V701.86H235.599V657.057ZM638.799 657.057H698.533V701.86H638.799V657.057Z" fill="#F0B800"/>
</svg>
