<svg width="934" height="934" viewBox="0 0 934 934" fill="none" xmlns="http://www.w3.org/2000/svg">
<rect width="934" height="934" fill="#F5F5F5"/>
<path d="M643.307 199.987C643.307 102.575 564.083 23.3333 466.667 23.3333C369.271 23.3333 290.013 102.588 290.013 199.987C290.013 297.385 369.253 376.627 466.653 376.627C564.049 376.621 643.307 297.381 643.307 199.987V199.987Z" fill="#F0B800"/>
<path d="M467.053 417.813C452.96 417.813 438.647 418.746 424.553 420.553C275.767 439.689 158.46 556.993 139.327 705.793C138.749 710.21 140.118 714.673 143.061 718.048C146.03 721.407 150.295 723.335 154.759 723.335H778.572C783.036 723.335 787.301 721.407 790.27 718.048C793.208 714.673 794.577 710.21 794.005 705.793C772.901 541.62 632.338 417.806 467.058 417.806L467.053 417.813Z" fill="#F0B800"/>
</svg>
