<svg width="741" height="708" viewBox="0 0 741 708" fill="none" xmlns="http://www.w3.org/2000/svg">
<g filter="url(#filter0_d_0_4)">
<path d="M406.88 672.813C408.125 683.282 417.036 690.985 427.328 690.985C428.151 690.985 428.979 690.939 429.797 690.84C508.015 681.496 578.757 647.204 634.343 591.657C750.109 475.892 770.077 298.417 682.885 160.07C676.796 150.435 664.073 147.565 654.437 153.622C644.801 159.695 641.926 172.429 647.994 182.054C724.854 303.992 707.245 460.428 605.187 562.494C556.193 611.437 493.859 641.656 424.894 649.885C413.602 651.25 405.53 661.505 406.873 672.812L406.88 672.813Z" fill="#F0B800"/>
</g>
<path d="M424.933 483.64C413.621 484.968 405.543 495.218 406.876 506.531C408.105 517.01 417.017 524.728 427.324 524.728C428.126 524.728 428.939 524.681 429.777 524.582C470.402 519.79 507.084 502.004 535.856 473.17C586.334 422.66 602.35 346.993 576.61 280.41C572.491 269.79 560.553 264.509 549.944 268.613C539.319 272.717 534.042 284.655 538.147 295.28C558.001 346.671 545.647 405.045 506.673 444.04C484.501 466.248 456.252 479.947 424.933 483.639L424.933 483.64Z" fill="#F0B800"/>
<path d="M21.0573 495.493H136.505L183.511 528.389L39.1106 672.789C31.0533 680.836 31.0533 693.893 39.1106 701.94C43.1315 705.971 48.4076 707.976 53.6733 707.976C58.965 707.976 64.2359 705.966 68.252 701.94L344.972 425.233C345.04 425.166 345.102 425.108 345.16 425.051L728.866 41.3311C736.923 33.2841 736.923 20.2271 728.866 12.1804C720.825 4.13879 707.762 4.13345 699.715 12.1804L623.194 88.7111C569.445 39.4817 502.908 8.96572 429.807 0.200387C418.511 -1.12773 408.234 6.91399 406.875 18.2217C405.532 29.5291 413.589 39.7844 424.902 41.1391C488.73 48.7849 546.855 75.2644 593.982 117.915L513.196 198.696C488.742 181.18 460.149 170.103 429.8 166.456C418.503 165.118 408.226 173.17 406.868 184.467C405.524 195.774 413.581 206.04 424.894 207.394C446.014 209.93 465.952 217.165 483.473 228.424L351.098 360.779V84.9924C351.098 77.3049 346.822 70.2577 340.004 66.7004C333.192 63.1535 324.974 63.6796 318.655 68.0963L136.602 195.476H21.0444C9.66416 195.476 0.435091 204.705 0.435091 216.096V474.883C0.429882 486.263 9.66429 495.492 21.0444 495.492L21.0573 495.493ZM163.604 226.907L309.871 124.573V402.013L213.105 498.789L163.605 464.149L163.604 226.907ZM41.6827 236.714H122.371V454.261H41.6827V236.714Z" fill="#F0B800"/>
<path d="M330.493 499.667C319.097 499.667 309.863 508.896 309.863 520.287V566.423L289.701 552.292C280.373 545.75 267.524 548.016 260.983 557.344C254.462 566.672 256.717 579.521 266.045 586.052L318.655 622.912C322.181 625.391 326.316 626.647 330.477 626.647C333.727 626.647 336.998 625.876 339.993 624.318C346.806 620.766 351.087 613.725 351.087 606.026L351.097 520.286C351.102 508.901 341.873 499.666 330.493 499.666L330.493 499.667Z" fill="#F0B800"/>
<defs>
<filter id="filter0_d_0_4" x="402.727" y="150.45" width="338.158" height="548.536" filterUnits="userSpaceOnUse" color-interpolation-filters="sRGB">
<feFlood flood-opacity="0" result="BackgroundImageFix"/>
<feColorMatrix in="SourceAlpha" type="matrix" values="0 0 0 0 0 0 0 0 0 0 0 0 0 0 0 0 0 0 127 0" result="hardAlpha"/>
<feOffset dy="4"/>
<feGaussianBlur stdDeviation="2"/>
<feComposite in2="hardAlpha" operator="out"/>
<feColorMatrix type="matrix" values="0 0 0 0 0 0 0 0 0 0 0 0 0 0 0 0 0 0 0.25 0"/>
<feBlend mode="normal" in2="BackgroundImageFix" result="effect1_dropShadow_0_4"/>
<feBlend mode="normal" in="SourceGraphic" in2="effect1_dropShadow_0_4" result="shape"/>
</filter>
</defs>
</svg>
