<svg data-name="Layer 1" viewBox="0 0 5 5" xmlns="http://www.w3.org/2000/svg"><path d="M3.584 2.215c-.039-.022-.08-.04-.118-.064a.358.358 0 0 1-.05-.034.234.234 0 0 0-.037-.035.488.488 0 0 1-.019-.098.818.818 0 0 1 .029-.128c.008-.066-.003-.168-.077-.193a.073.073 0 0 0-.035-.004.096.096 0 0 0 .02-.023.132.132 0 0 0-.016-.152.117.117 0 0 0-.18.056.157.157 0 0 1-.038.059.784.784 0 0 1 .01-.084.187.187 0 0 1 .016-.049l.008-.01.013-.007a.134.134 0 0 0 .062-.102.12.12 0 0 0-.046-.104.117.117 0 0 0-.086-.03.155.155 0 0 0-.003-.055.117.117 0 0 0-.147-.092.111.111 0 0 0-.054.035.204.204 0 0 0-.12-.16.167.167 0 0 0-.219.105.3.3 0 0 0-.015.074.725.725 0 0 1-.019.087 1.39 1.39 0 0 1-.06.164 1.09 1.09 0 0 0-.066.2.48.48 0 0 1-.011-.046.197.197 0 0 1 .015-.102.307.307 0 0 0 .011-.11.595.595 0 0 0-.043-.193c-.04-.101-.128-.248-.258-.215a.174.174 0 0 0-.125.124.198.198 0 0 0 .036.16.226.226 0 0 0-.064.068.315.315 0 0 0-.039.09.519.519 0 0 1-.024.1.012.012 0 0 0 .017.015.244.244 0 0 0 .066-.101.264.264 0 0 1 .09-.117.084.084 0 0 1 .108.037.126.126 0 0 1-.016.145l-.002.007a.115.115 0 0 0-.134-.038.165.165 0 0 0-.064.059.139.139 0 0 1-.042.044c-.015.009-.03.016-.045.026a.203.203 0 0 0-.076.163.014.014 0 0 0 .006.013.275.275 0 0 0-.025.03.385.385 0 0 0-.078.215.148.148 0 0 0-.072.092c-.016.048-.036.096-.049.144a.587.587 0 0 0-.017.151.011.011 0 0 0 .022.001.395.395 0 0 1 .04-.137 1.4 1.4 0 0 0 .044-.13.106.106 0 0 1 .085-.084.161.161 0 0 0 .096-.042.008.008 0 0 0-.01-.014.16.16 0 0 1-.071.005l-.029.002a.96.96 0 0 1 .055-.148.178.178 0 0 1 .04-.068c.028-.026.06-.012.094-.02.029-.007.054-.026.084-.01a.081.081 0 0 1 .044.057.17.17 0 0 1-.083.163.01.01 0 0 0 .009.017.193.193 0 0 0 .136-.174.122.122 0 0 0-.145-.12c-.02.005-.04.016-.06.022a.655.655 0 0 0-.066.016l-.014.007a.312.312 0 0 1 .045-.11c.03-.038.086-.049.118-.088.016-.02.029-.037.056-.034a.095.095 0 0 1 .053.022.13.13 0 0 1 .013.144c-.003.007.005.015.011.01a.142.142 0 0 0 .043-.166l-.009-.013.011-.001a.156.156 0 0 0-.062-.271.123.123 0 0 0-.07.01c-.023-.085.007-.219.113-.21.051.003.087.06.112.099a.525.525 0 0 1 .067.164.375.375 0 0 1 .002.177.289.289 0 0 0-.009.113.059.059 0 0 0-.035 0 .439.439 0 0 0-.045.023c-.009.003-.003.015.005.015.046-.005.082.035.103.07l.003.004a.878.878 0 0 1 .032.132.483.483 0 0 1-.017.197c-.04.149-.086.295-.121.445a.018.018 0 0 0 .033.01c.054-.15.1-.302.147-.454a.465.465 0 0 0 .016-.216.668.668 0 0 0-.028-.101l.003-.014c.006-.03.015-.059.023-.087.016-.055.037-.108.058-.16a1.691 1.691 0 0 0 .06-.171.703.703 0 0 1 .052-.16.103.103 0 0 1 .127-.055.148.148 0 0 1 .09.112.339.339 0 0 1-.017.169c-.008.026-.02.05-.028.077a.174.174 0 0 1-.03.05c-.038.03-.07.091-.042.131a.023.023 0 0 0 .037-.003.14.14 0 0 0 .007-.062.135.135 0 0 1 .01-.045l.03-.037a.398.398 0 0 0 .047-.062.428.428 0 0 0 .05-.144l.003-.021a.098.098 0 0 1 .074-.046c.06-.004.071.073.062.118-.01.048-.058.071-.079.113-.018.037-.012.08-.033.116a.186.186 0 0 0-.105.002c-.008.002-.011.016-.001.018a.373.373 0 0 1 .157.069c.047.038.091.081.137.121a1.129 1.129 0 0 1 .11.132c.016.02.031.041.048.06.018.021.027.043.053.053.015.006.023-.013.015-.024a.102.102 0 0 0-.028-.024.138.138 0 0 1-.034-.035.298.298 0 0 1-.018-.028.171.171 0 0 1 .055-.093c.033-.02.063.012.072.042a.602.602 0 0 1-.006.196c-.003.066.017.13.017.197a.785.785 0 0 1-.04.206c-.005.016.017.028.025.013a.467.467 0 0 0 .067-.197l.001.002a.347.347 0 0 0 .098.066c.043.024.085.05.128.073a.175.175 0 0 1 .058.037.4.4 0 0 1 .034.064.013.013 0 0 0 .025-.005c.007-.09-.079-.156-.148-.195Zm-.544-.716a.231.231 0 0 0-.016.078.44.44 0 0 0-.127-.1.112.112 0 0 0 .017-.052.135.135 0 0 1 .041-.092.308.308 0 0 0 .07-.074l.008-.017a.088.088 0 0 1 .086.094.094.094 0 0 1-.034.062.14.14 0 0 1-.094.024c-.01-.003-.018.012-.008.017.023.01.038.028.066.028h.01a.128.128 0 0 0-.019.032Zm.16.161a.01.01 0 0 0-.007.019.081.081 0 0 0 .046 0 .246.246 0 0 0-.054.108l-.016-.026a1.254 1.254 0 0 0-.103-.137.237.237 0 0 0 .05-.051l.029-.039a.066.066 0 0 1 .055-.02c.041-.002.052.029.06.064.01.041-.01.095-.06.082Z" fill="#f0b800" class="fill-000000"></path><path d="M1.848 1.92a.008.008 0 0 0-.003.015.096.096 0 0 1 .032.167c-.027.019-.057.031-.083.05-.024.02-.039.052-.064.068a.021.021 0 0 0 .014.04.101.101 0 0 0 .053-.028c.018-.018.027-.04.047-.054.04-.026.082-.04.105-.084a.118.118 0 0 0-.101-.174ZM4.004 3.04a8.617 8.617 0 0 0-.339.014q-.17.011-.34.015a8.76 8.76 0 0 1-.28.003.32.32 0 0 0 .018-.046l.034-.094a.956.956 0 0 1 .039-.11c.005-.01-.01-.02-.016-.01-.016.024-.037.045-.054.07a.547.547 0 0 0-.042.073c-.012.026-.022.053-.032.08a.255.255 0 0 1-.015.037c-.054-.002-.11-.004-.164-.003l-.011.001a.022.022 0 0 0 0-.016.601.601 0 0 0-.165-.238.646.646 0 0 0-.251-.109.592.592 0 0 1-.131-.05.308.308 0 0 1-.096-.103.498.498 0 0 1-.05-.3.01.01 0 0 0-.02-.002c-.004.038-.006.076-.008.114a.066.066 0 0 0-.018-.012.067.067 0 0 0-.051-.002 1.011 1.011 0 0 0 .162-.339c.002-.014-.02-.017-.024-.004a.556.556 0 0 1-.117.188.757.757 0 0 0-.111.192.637.637 0 0 0-.03.43.007.007 0 0 0 .014-.003.806.806 0 0 1 .086-.427.067.067 0 0 1 .055.003.057.057 0 0 1 .03.044.219.219 0 0 0 .014.123.442.442 0 0 0 .08.114.358.358 0 0 0 .128.074.978.978 0 0 1 .264.109.52.52 0 0 1 .095.103.668.668 0 0 0 .107.113c-.038.003-.075.008-.113.012a.007.007 0 0 0 0 .013 1.563 1.563 0 0 0 .158.031c.056.007.114.008.17.01.116.002.231.004.347.001q.17-.003.34-.014a2.738 2.738 0 0 0 .34-.045c.022-.004.02-.041-.003-.04ZM1.524 2.019a.499.499 0 0 0-.119.105.423.423 0 0 0-.08.122l-.01.025a.746.746 0 0 0-.049.077 1.817 1.817 0 0 0-.048.101 1.008 1.008 0 0 0-.043.104.249.249 0 0 0-.009.05.496.496 0 0 1-.016.064l-.003.014c-.04.01-.077.028-.117.04a1.248 1.248 0 0 1-.142.03 2.33 2.33 0 0 1-.319.046c-.01 0-.012.017 0 .018.059.001.117.006.177.007a1.043 1.043 0 0 0 .16-.01.489.489 0 0 0 .249-.079l.007.02a.575.575 0 0 1 .034.103.423.423 0 0 0 .057.195.017.017 0 0 0 .028-.014c-.013-.064-.02-.128-.028-.193a.592.592 0 0 0-.064-.176c-.018-.04.016-.067.031-.1.015-.032.026-.067.039-.1l.015-.038a.533.533 0 0 0-.023.141.665.665 0 0 0 .01.152c.013.052.034.1.048.152a.71.71 0 0 1 .014.079.448.448 0 0 0 .017.063c.013.047.01.105.047.141a.028.028 0 0 0 .046-.03c-.009-.021-.023-.038-.032-.059a.151.151 0 0 1-.013-.072.46.46 0 0 0-.014-.135 1.187 1.187 0 0 0-.048-.14.259.259 0 0 1-.031-.148c.028-.1.045-.203.075-.303a.511.511 0 0 1 .024-.075.383.383 0 0 1 .04-.061c.029-.04.071-.067.099-.107a.007.007 0 0 0-.009-.01Z" fill="#f0b800" class="fill-000000"></path><path d="M2.015 2.858a.387.387 0 0 0-.023-.028c-.007-.008-.014-.02-.025-.024a.01.01 0 0 0-.011.006.047.047 0 0 0 .003.033.275.275 0 0 0-.05-.002c-.038.002-.074.012-.111.013a.218.218 0 0 1-.105-.025c-.034-.016-.063-.026-.08-.061a.803.803 0 0 1-.032-.089.324.324 0 0 0-.045-.078.148.148 0 0 1-.025-.105.3.3 0 0 0-.007-.1c-.002-.007-.015-.008-.014.001a.974.974 0 0 1-.025.117.177.177 0 0 0 .021.097.609.609 0 0 1 .043.106.237.237 0 0 0 .039.093.415.415 0 0 0 .08.066.245.245 0 0 0 .102.044.398.398 0 0 0 .12-.006 1.298 1.298 0 0 1 .135-.013.023.023 0 0 0 .01-.045ZM1.502 3.326a.128.128 0 0 1-.031-.054.15.15 0 0 0-.037-.057.015.015 0 0 0-.024.016.122.122 0 0 1 .013.046.184.184 0 0 0 .003.045.066.066 0 0 0 .053.05.028.028 0 0 0 .023-.046ZM4.267 3.962c-.245-.04-.493-.071-.738-.117q-.36-.066-.718-.15a3.038 3.038 0 0 1-.173-.045.755.755 0 0 1-.18-.068.01.01 0 0 0-.012.018c.027.021.054.042.082.061a4.588 4.588 0 0 1-.212-.01 1.72 1.72 0 0 1-.304-.041 2.367 2.367 0 0 1-.285-.104.727.727 0 0 1-.122-.053.362.362 0 0 0-.097-.047.01.01 0 0 0-.006.018c.04.017.058.07.091.097a.466.466 0 0 0 .123.057 1.872 1.872 0 0 0 .29.105 1.283 1.283 0 0 0 .222.027c-.011.027-.02.055-.029.081a.21.21 0 0 1-.069.097.363.363 0 0 1-.248.075.536.536 0 0 1-.257-.092 1.597 1.597 0 0 0-.216-.13c-.01-.005-.019.013-.009.018.094.044.145.133.226.193a.49.49 0 0 0 .288.092.365.365 0 0 0 .266-.1.39.39 0 0 0 .077-.115.424.424 0 0 0 .023-.117h.033a2.005 2.005 0 0 0 .284-.012.893.893 0 0 0 .14.051l.12.03-.003.012a.27.27 0 0 1-.013.043.287.287 0 0 1-.056.08.37.37 0 0 1-.164.097.506.506 0 0 1-.185.017.484.484 0 0 1-.199-.047.01.01 0 0 0-.01.017.524.524 0 0 0 .2.093.493.493 0 0 0 .227-.016.407.407 0 0 0 .193-.122.289.289 0 0 0 .053-.095.275.275 0 0 0 .013-.056v-.01l.175.04c.248.053.496.103.747.14a3.03 3.03 0 0 0 .43.034.023.023 0 0 0 .002-.046ZM2.38 3.126c-.026-.018-.056.008-.07.03a.102.102 0 0 0-.014.039c-.002.013.004.027.001.04a.01.01 0 0 0 .016.01c.019-.015.034-.034.051-.051.017-.016.044-.048.016-.068ZM3.486 2.44a.784.784 0 0 0-.008-.09.01.01 0 0 0-.019-.001.375.375 0 0 0-.015.087l-.001.013a.29.29 0 0 0-.084-.035c-.045-.013-.091-.022-.136-.037a.597.597 0 0 1-.24-.158.53.53 0 0 1-.052-.068.147.147 0 0 0 .04-.005.225.225 0 0 0 .104-.075c.01-.01-.004-.025-.014-.016a.255.255 0 0 1-.168.04.225.225 0 0 0-.093-.08.129.129 0 0 0-.04-.01.521.521 0 0 0 .01-.085.324.324 0 0 0-.008-.111.008.008 0 0 0-.015 0 .7.7 0 0 1-.023.114.185.185 0 0 0-.005.087.104.104 0 0 0-.027.013.187.187 0 0 0-.057.103.008.008 0 0 0 .014.007c.022-.036.038-.084.088-.08a.147.147 0 0 1 .103.063 1.318 1.318 0 0 0 .166.187.76.76 0 0 0 .21.125c.041.016.083.028.125.042a.985.985 0 0 0 .11.038l.003.004a.017.017 0 0 0 .026-.002.103.103 0 0 0 .006-.07ZM3.34 3.018a1.144 1.144 0 0 1-.148-.23.302.302 0 0 0-.064-.097 1.139 1.139 0 0 0-.109-.075c-.145-.097-.318-.202-.373-.379a.008.008 0 0 0-.015.004.406.406 0 0 0 .025.099.125.125 0 0 0-.014.021.688.688 0 0 0-.018.04.138.138 0 0 1-.062.069.008.008 0 0 0 .007.013.341.341 0 0 0 .086-.058.103.103 0 0 0 .025-.034.591.591 0 0 0 .287.246.363.363 0 0 1 .132.072.344.344 0 0 1 .064.132.58.58 0 0 0 .067.132c.023.036.048.076.094.08a.02.02 0 0 0 .017-.035Z" fill="#f0b800" class="fill-000000"></path><path d="M2.838 2.185c-.023-.01-.045.01-.06.025a.263.263 0 0 0-.031.036.489.489 0 0 0-.025-.047.196.196 0 0 1-.021-.09.008.008 0 0 0-.016 0 .23.23 0 0 0 .001.098c.007.024.02.057.046.066 0 .007.009.013.015.007a.218.218 0 0 1 .05-.041c.015-.01.043-.017.047-.036a.016.016 0 0 0-.006-.018ZM4.421 2.95c-.074-.012-.149-.026-.224-.035a10.444 10.444 0 0 1-.11-.013c-.02-.003-.031-.003-.044-.018a.275.275 0 0 1-.025-.041c-.036-.064-.076-.125-.115-.186-.042-.066-.09-.126-.133-.19a.007.007 0 0 0-.012.005c.034.076.062.153.099.228a2.338 2.338 0 0 0 .11.214c.04.063.13.053.196.06.085.009.17.012.256.017.027.002.027-.036.002-.04ZM1.315 3.702a.469.469 0 0 0-.093-.04c-.034-.01-.07-.01-.104-.021a.42.42 0 0 1-.154-.11c-.01-.008-.026.005-.016.015.026.024.031.063.05.092a.18.18 0 0 0 .08.064.4.4 0 0 0 .105.025c.04.006.081 0 .121.006.017.003.025-.023.01-.03Z" fill="#f0b800" class="fill-000000"></path></svg>