<svg viewBox="0 0 32 32" xml:space="preserve" xmlns="http://www.w3.org/2000/svg"><path d="M6.5 7c-1.654 0-3-1.346-3-3s1.346-3 3-3 3 1.346 3 3-1.346 3-3 3zm0-5c-1.103 0-2 .897-2 2s.897 2 2 2 2-.897 2-2-.897-2-2-2zM6.5 31a.5.5 0 0 1-.5-.5v-10a.5.5 0 0 1 1 0v10a.5.5 0 0 1-.5.5z" fill="#f0b800" class="fill-263238"></path><path d="M9.5 31a.5.5 0 0 1-.5-.5v-18a.5.5 0 0 1 1 0v1.1c.044.773.703 1.4 1.5 1.4h3c.275 0 .5-.225.5-.5s-.225-.5-.5-.5h-3a.5.5 0 0 1-.5-.5v-2C11 10.121 9.879 9 8.5 9h-4A2.502 2.502 0 0 0 2 11.5v7c0 .275.225.5.5.5s.5-.225.5-.5a.5.5 0 0 1 1 0v12a.5.5 0 0 1-1 0V19.914A1.502 1.502 0 0 1 1 18.5v-7C1 9.57 2.57 8 4.5 8h4c1.93 0 3.5 1.57 3.5 3.5V13h2.5c.827 0 1.5.673 1.5 1.5s-.673 1.5-1.5 1.5h-3a2.49 2.49 0 0 1-1.5-.502V30.5a.5.5 0 0 1-.5.5z" fill="#f0b800" class="fill-263238"></path><path d="M6.5 31a.5.5 0 0 1-.5-.5v-10a.5.5 0 0 1 1 0v10a.5.5 0 0 1-.5.5zM3.5 19a.5.5 0 0 1-.5-.5v-6a.5.5 0 0 1 1 0v6a.5.5 0 0 1-.5.5zM30.5 29h-17a.5.5 0 0 1 0-1h17a.5.5 0 0 1 0 1zM30.5 10h-15a.5.5 0 0 1 0-1H30V1.5a.5.5 0 0 1 1 0v8a.5.5 0 0 1-.5.5z" fill="#f0b800" class="fill-263238"></path><path d="M30.5 31h-17a.5.5 0 0 1-.5-.5V15.499a.5.5 0 0 1 1 0V30h16V2H14v9.5a.5.5 0 0 1-1 0v-10a.5.5 0 0 1 .5-.5h17a.5.5 0 0 1 .5.5v29a.5.5 0 0 1-.5.5z" fill="#f0b800" class="fill-263238"></path><path d="M25.5 29a.5.5 0 0 1-.5-.5v-17a.5.5 0 0 1 1 0v17a.5.5 0 0 1-.5.5zM28.5 24h-1a.5.5 0 0 1 0-1h1a.5.5 0 0 1 0 1zM17.5 13.05c-.276 0-.5-.174-.5-.45v-.1a.5.5 0 0 1 1 0c0 .276-.224.55-.5.55zM17.5 15.05c-.276 0-.5-.174-.5-.45v-.1a.5.5 0 0 1 1 0c0 .276-.224.55-.5.55zM17.5 17.05c-.276 0-.5-.174-.5-.45v-.1a.5.5 0 0 1 1 0c0 .276-.224.55-.5.55zM19.5 13.05c-.276 0-.5-.174-.5-.45v-.1a.5.5 0 0 1 1 0c0 .276-.224.55-.5.55zM19.5 15.05c-.276 0-.5-.174-.5-.45v-.1a.5.5 0 0 1 1 0c0 .276-.224.55-.5.55zM19.5 17.05c-.276 0-.5-.174-.5-.45v-.1a.5.5 0 0 1 1 0c0 .276-.224.55-.5.55zM21.5 13.05c-.276 0-.5-.174-.5-.45v-.1a.5.5 0 0 1 1 0c0 .276-.224.55-.5.55zM21.5 15.05c-.276 0-.5-.174-.5-.45v-.1a.5.5 0 0 1 1 0c0 .276-.224.55-.5.55zM21.5 17.05c-.276 0-.5-.174-.5-.45v-.1a.5.5 0 0 1 1 0c0 .276-.224.55-.5.55zM27.5 15a.5.5 0 0 1-.5-.5v-2a.5.5 0 0 1 .5-.5h1a.5.5 0 0 1 0 1H28v1.5a.5.5 0 0 1-.5.5zM18.999 25.5c-.239 0-.451.327-.492.082l-.5-3A.503.503 0 0 1 18.5 22h2a.5.5 0 0 1 0 1h-1.41l.403 2.418c.046.272-.139.03-.411.075a.465.465 0 0 1-.083.007zM24.5 7h-1.3a.5.5 0 0 1 0-1h1.3c.275 0 .5-.225.5-.5s-.225-.5-.5-.5h-1a.5.5 0 0 1 0-1h1c.827 0 1.5.673 1.5 1.5S25.327 7 24.5 7z" fill="#f0b800" class="fill-263238"></path><path d="M22.12 8h-1.24a1.498 1.498 0 0 1-1.486-1.319l-.39-3.119a.501.501 0 0 1 .435-.558.507.507 0 0 1 .558.435l.39 3.12A.504.504 0 0 0 20.88 7h1.24a.505.505 0 0 0 .494-.44l.32-2.56H21a.5.5 0 0 1 0-1h2.5a.501.501 0 0 1 .496.562l-.39 3.12A1.498 1.498 0 0 1 22.12 8zM22.5 26h-6a.5.5 0 0 1-.5-.5v-6a.5.5 0 0 1 .5-.5h6a.5.5 0 0 1 .5.5v6a.5.5 0 0 1-.5.5zM17 25h5v-5h-5v5z" fill="#f0b800" class="fill-263238"></path></svg>