<svg width="293" height="329" viewBox="0 0 293 329" fill="none" xmlns="http://www.w3.org/2000/svg">
<path d="M285.253 208.533L284.727 193.601L216.41 195.987L161.603 164.331L216.41 132.675L284.727 135.06L285.253 120.128L240.827 118.561L292.644 88.6965L285.175 75.7017L233.358 105.644L254.191 66.447L241.051 59.4263L208.941 119.754L154.139 151.416V88.0982L190.352 30.1556L177.654 22.2441L154.138 59.8748V0.0681152H139.201V59.8748L115.685 22.2441L102.987 30.1556L139.2 88.0982V151.416L84.3975 119.754L52.2881 59.4263L39.1475 66.447L59.9808 105.644L8.16348 75.7017L0.694672 88.6965L52.512 118.561L8.08534 120.128L8.61138 135.06L76.9287 132.675L131.735 164.331L76.9287 195.987L8.61138 193.601L8.08534 208.533L52.512 210.101L0.694672 239.965L8.16348 252.96L59.9808 223.017L39.1475 262.215L52.2881 269.235L84.3975 208.907L139.2 177.246V240.563L102.987 298.506L115.685 306.417L139.201 268.787V328.593H154.138V268.787L177.654 306.417L190.352 298.506L154.139 240.563V177.246L208.941 208.907L241.051 269.235L254.191 262.215L233.358 223.017L285.175 252.96L292.644 239.965L240.827 210.101L285.253 208.533Z" fill="#F0B800"/>
</svg>
