<svg width="839" height="870" viewBox="0 0 839 870" fill="none" xmlns="http://www.w3.org/2000/svg">
<g filter="url(#filter0_d_0_1)">
<path d="M311.63 335.419H312.13V334.919V334.314C312.13 290.167 328.682 249.046 358.831 218.189L358.832 218.188L358.93 218.09C421.722 154.536 523.606 154.536 586.402 218.698L586.404 218.7C649.197 282.255 649.2 386.373 586.405 450.538C555.594 481.409 515.315 498.354 472.667 498.354H472.074H471.574V498.854V499.46C471.574 589.661 399.291 663.5 311.037 663.5C222.783 663.5 150.5 589.661 150.5 499.46C150.5 409.259 222.782 335.419 311.037 335.419H311.63ZM460.684 499.461V499.354C460.712 499.354 460.744 499.354 460.779 499.354L460.818 498.355C422.317 495.333 387.367 478.39 359.517 450.537C331.681 422.694 315.683 386.376 312.719 347.026L312.685 346.564H312.221H311.031C228.742 346.564 161.379 415.404 161.379 499.461C161.379 583.518 228.74 652.358 311.031 652.358C393.32 652.358 460.684 583.516 460.684 499.461ZM578.795 225.89L578.793 225.888C549.574 196.038 510.82 181.416 472.662 181.416C433.911 181.416 395.749 196.035 366.532 225.888C337.914 255.125 322.415 293.503 322.415 334.312C322.415 375.728 337.918 413.501 366.532 442.737C395.146 471.977 432.712 487.818 472.662 487.818C513.207 487.818 550.773 471.366 578.793 442.737L578.436 442.387L578.795 442.735C636.623 383.039 636.623 285.585 578.795 225.89Z" fill="#F0B800" stroke="#F0B800"/>
<path d="M507.971 619.847L507.93 619.824L507.885 619.808C507.085 619.537 506.577 619.141 506.195 618.62C505.81 618.097 505.537 617.428 505.252 616.56C505.252 615.36 505.267 613.67 505.809 611.982L532.522 564.067C534.166 561.274 537.365 560.199 540.033 561.75L540.145 561.819C542.842 563.472 543.441 566.804 542.328 569.679L520.953 607.901L520.475 608.756L521.448 608.642C568.046 603.149 605.674 562.257 606.27 514.04V514.034C606.27 510.686 608.996 508.461 611.714 508.461C613.382 508.461 614.733 509.026 615.667 509.981C616.601 510.936 617.157 512.32 617.158 514.029C615.972 566.008 578.11 609.511 529.623 617.969L528.254 618.208L529.461 618.896L560.355 636.497C563.116 638.196 564.176 641.539 562.56 644.304C561.449 646.005 559.81 647.104 557.638 647.104C557.033 647.104 556.632 647.102 556.236 647.035C555.854 646.97 555.46 646.84 554.903 646.558L507.971 619.847Z" fill="#F0B800" stroke="#F0B800"/>
<path d="M278.467 217.286L278.467 217.287C279.001 218.915 278.478 220.581 277.906 221.757L251.182 269.693C250.642 270.516 249.823 271.218 248.919 271.715C248.008 272.217 247.05 272.489 246.263 272.489C245.658 272.489 245.257 272.488 244.861 272.42C244.485 272.356 244.096 272.229 243.551 271.955C240.856 270.302 240.257 266.971 241.37 264.096L262.745 225.874L263.224 225.018L262.25 225.133C215.652 230.626 178.024 271.518 177.428 319.734V319.741C177.428 323.089 174.702 325.314 171.984 325.314C170.316 325.314 168.965 324.749 168.031 323.794C167.096 322.838 166.54 321.453 166.54 319.743C167.136 267.772 205.582 224.265 254.071 215.797L255.44 215.558L254.233 214.87L223.339 197.269C220.575 195.569 219.516 192.22 221.14 189.452C222.807 186.617 226.075 185.549 228.767 187.199L228.774 187.203L228.781 187.207L275.723 213.923L275.764 213.947L275.809 213.962C276.609 214.234 277.117 214.63 277.499 215.15C277.895 215.688 278.172 216.381 278.467 217.286ZM243.324 272.4C243.473 272.475 243.612 272.54 243.744 272.597L243.291 272.383C243.302 272.389 243.313 272.395 243.324 272.4Z" fill="#F0B800" stroke="#F0B800"/>
<path d="M472.665 277.348H472.165V277.35C449.555 277.573 429.41 292.852 422.862 315.964L422.682 316.6H423.343H476.822C478.205 316.6 479.253 317.021 479.956 317.74C480.661 318.46 481.076 319.537 481.076 320.958C481.076 323.688 478.953 325.316 476.822 325.316H420.963H420.551L420.472 325.72C419.87 328.8 419.87 330.664 419.87 333.097V333.1C419.87 336.758 420.465 340.409 421.051 344.013L421.067 344.107L421.135 344.527H421.56H476.229C477.612 344.527 478.661 344.948 479.364 345.667C480.068 346.387 480.484 347.464 480.484 348.885C480.484 351.615 478.36 353.243 476.229 353.243H423.936H423.187L423.474 353.935C431.87 374.147 451.058 387.638 472.665 387.638C490.082 387.638 500.901 380.25 511.645 369.271C512.156 368.75 513.215 368.206 514.26 368.206C515.304 368.206 516.368 368.754 516.875 369.271C518.467 370.898 518.467 373.624 516.875 375.251C506.819 385.525 493.273 395.743 472.071 395.743C446.141 395.743 422.565 378.883 414.313 353.588L414.201 353.243H413.838H400.171C398.789 353.243 397.74 352.822 397.037 352.103C396.333 351.383 395.917 350.306 395.917 348.885C395.917 346.155 398.041 344.527 400.171 344.527H411.463H412.052L411.956 343.946C411.358 340.298 410.773 336.695 410.773 333.101C410.773 331.923 410.917 330.739 411.066 329.519L411.068 329.504C411.215 328.3 411.366 327.06 411.366 325.816V325.316H410.866H399.575C398.192 325.316 397.144 324.895 396.44 324.176C395.736 323.456 395.32 322.379 395.32 320.958C395.32 318.228 397.444 316.6 399.575 316.6H412.648H413.036L413.132 316.224C420.206 288.511 444.374 269.848 472.071 269.848C493.864 269.848 506.816 280.063 516.874 290.34L517.232 289.99L516.874 290.34C517.385 290.862 517.921 291.949 517.921 293.027C517.921 294.104 517.381 295.196 516.874 295.714C516.364 296.235 515.304 296.779 514.26 296.779C513.215 296.779 512.152 296.231 511.645 295.714C505.986 289.929 500.594 285.332 494.433 282.184C488.264 279.032 481.35 277.348 472.665 277.348Z" fill="#F0B800" stroke="#F0B800"/>
<path d="M316.476 504.318V504.527L316.624 504.674L316.625 504.675L316.717 504.766L316.841 504.801C325.474 507.234 334.305 509.796 340.912 514.221C344.207 516.427 346.93 519.086 348.797 522.407C350.661 525.725 351.685 529.731 351.54 534.659L351.54 534.666V534.673C351.54 540.621 349.357 547.166 343.891 552.452C338.425 557.739 329.634 561.806 316.35 562.711L315.884 562.743V563.21V576.067H309.157V563.21V562.727L308.675 562.71C291.782 562.116 279.532 556.236 271.316 547.435L277.18 541.444C284.366 548.065 295.042 554.61 309.207 555.817L309.75 555.863V555.319V512.818V512.427L309.369 512.333C300.738 510.206 292.201 507.945 285.818 503.971C282.635 501.99 280.007 499.594 278.172 496.593C276.34 493.595 275.284 489.968 275.284 485.497C275.284 477.469 278.914 470.933 284.967 466.313C291.03 461.686 299.538 458.976 309.265 458.676L309.75 458.661V458.176V444.713H316.476V458.176V458.655L316.955 458.676C330.881 459.268 341.927 464.53 349.55 472.142L343.727 478.092C336.535 470.353 327.049 466.775 317.035 465.57L316.476 465.503V466.066V504.318ZM309.115 502.979L309.749 503.156V502.497V465.461V464.939L309.228 464.961C294.843 465.571 284.385 473.567 284.385 484.281C284.385 489.97 287.345 493.754 291.903 496.549C296.43 499.324 302.592 501.161 309.115 502.979ZM317.104 514.156L316.476 513.989V514.639V554.862V555.318V555.319H316.976L317.022 555.816C326.907 554.898 333.413 551.831 337.451 547.938C341.492 544.042 343.026 539.355 343.026 535.282C343.026 529.008 339.938 524.617 335.157 521.36C330.402 518.121 323.942 515.978 317.104 514.156Z" fill="#F0B800" stroke="#F0B800"/>
</g>
<defs>
<filter id="filter0_d_0_1" x="146" y="170" width="492" height="502" filterUnits="userSpaceOnUse" color-interpolation-filters="sRGB">
<feFlood flood-opacity="0" result="BackgroundImageFix"/>
<feColorMatrix in="SourceAlpha" type="matrix" values="0 0 0 0 0 0 0 0 0 0 0 0 0 0 0 0 0 0 127 0" result="hardAlpha"/>
<feOffset dy="4"/>
<feGaussianBlur stdDeviation="2"/>
<feComposite in2="hardAlpha" operator="out"/>
<feColorMatrix type="matrix" values="0 0 0 0 0 0 0 0 0 0 0 0 0 0 0 0 0 0 0.25 0"/>
<feBlend mode="normal" in2="BackgroundImageFix" result="effect1_dropShadow_0_1"/>
<feBlend mode="normal" in="SourceGraphic" in2="effect1_dropShadow_0_1" result="shape"/>
</filter>
</defs>
</svg>
