<svg width="934" height="934" viewBox="0 0 934 934" fill="none" xmlns="http://www.w3.org/2000/svg">
<rect width="934" height="934" fill="#F5F5F5"/>
<path d="M431.573 239.68C431.573 298.664 383.787 346.451 324.803 346.451C265.819 346.451 218.032 298.664 218.032 239.68C218.032 180.696 265.819 132.909 324.803 132.909C383.787 132.904 431.573 180.691 431.573 239.68V239.68ZM608.533 132.904C549.549 132.904 501.763 180.691 501.763 239.675C501.763 298.659 549.549 346.445 608.533 346.445C667.517 346.445 715.304 298.659 715.304 239.675C715.309 180.691 667.523 132.904 608.533 132.904ZM608.533 378.557C539.096 378.557 494.293 412.907 466.667 462.183C438.292 412.901 394.24 378.557 324.8 378.557C193.388 378.557 151.573 501.011 141.12 613.757H792.96C781.757 501.012 739.944 378.557 608.533 378.557V378.557Z" fill="#F0B800"/>
</svg>
