<svg width="934" height="934" viewBox="0 0 934 934" fill="none" xmlns="http://www.w3.org/2000/svg">
<rect width="934" height="934" />
<path d="M515.746 728.998C519.032 728.998 521.222 727.098 521.222 724.248V505.75C521.222 502.9 519.032 501 515.746 501H366.803C363.517 501 361.327 502.9 361.327 505.75V724.248C361.327 727.098 363.517 728.998 366.803 728.998C370.089 728.998 372.279 727.098 372.279 724.248V510.5H510.271V724.248C510.271 727.098 513.008 728.998 515.746 728.998Z" fill="#FFC701"/>
<path d="M417.181 728.998H464.822C468.108 728.998 470.298 727.098 470.298 724.248L470.295 652.048H477.413C480.699 652.048 482.889 650.149 482.889 647.298L482.891 594.576C482.891 583.652 473.036 575.1 460.439 575.1H421.56C409.512 575.1 399.108 583.649 399.108 594.576V647.301C399.108 650.151 401.298 652.051 404.584 652.051H411.702L411.704 724.25C411.704 727.1 414.442 729 417.18 729L417.181 728.998ZM410.609 642.549V594.576C410.609 589.35 415.536 584.6 422.109 584.6H460.988C467.012 584.6 472.488 588.875 472.488 594.576V642.551H465.371C462.085 642.551 459.895 644.45 459.895 647.301L459.892 719.5H446.751V688.15C446.751 685.299 444.561 683.4 441.275 683.4C437.989 683.4 435.799 685.299 435.799 688.15V719.5H422.658V647.301C422.658 644.45 420.468 642.551 417.182 642.551L410.609 642.549Z" fill="#FFC701"/>
<path d="M441.275 567.974C454.964 567.974 466.464 557.999 466.464 546.124C466.464 534.249 454.964 524.274 441.275 524.274C427.585 524.274 416.085 534.249 416.085 546.124C416.085 557.999 427.585 567.974 441.275 567.974ZM441.275 533.773C448.94 533.773 455.513 539.474 455.513 546.124C455.513 552.774 448.94 558.474 441.275 558.474C433.609 558.474 427.037 552.774 427.037 546.124C427.037 538.999 433.609 533.773 441.275 533.773Z" fill="#FFC701"/>
<path d="M551.887 573.674C548.601 573.674 546.411 575.574 546.411 578.424V631.625L539.294 625.924C537.104 624.024 533.818 624.024 531.628 626.399C529.439 628.299 529.439 631.149 532.176 633.049L548.604 646.347C548.604 646.347 549.152 646.823 549.7 646.823L550.248 647.298C550.797 647.298 551.345 647.774 552.438 647.774H553.535H554.631C555.179 647.774 555.179 647.298 555.179 647.298C555.727 647.298 555.727 646.823 556.275 646.823L571.606 632.573C573.796 630.674 573.248 627.823 571.058 625.924C568.868 624.024 565.582 624.5 563.393 626.399L557.917 631.625L557.909 578.424C557.363 575.576 555.171 573.674 551.887 573.674L551.887 573.674Z" fill="#FFC701"/>
<path d="M315.33 606.924C316.971 606.924 318.068 606.448 319.164 605.5L324.64 600.274V652.048C324.64 654.899 326.83 656.798 330.116 656.798C333.402 656.798 335.592 654.899 335.592 652.048V598.85L342.709 604.551C344.899 606.45 348.185 606.45 350.374 604.076C352.564 601.701 352.564 599.326 349.826 597.426L333.399 584.127C333.399 584.127 332.851 584.127 332.851 583.652C332.302 583.652 332.302 583.177 331.754 583.177H330.658H329.562H328.465H327.369C326.821 583.177 326.821 583.652 326.821 583.652C326.273 583.652 326.273 584.127 325.725 584.127L310.394 598.377C308.204 600.277 308.752 603.127 310.942 605.027C312.592 606.451 314.233 606.924 315.33 606.924L315.33 606.924Z" fill="#FFC701"/>
</svg>
