<svg width="625" height="566" viewBox="0 0 625 566" fill="none" xmlns="http://www.w3.org/2000/svg">
<rect width="625" height="566"/>
<path d="M85.0106 360.42H98.6702L145.947 447.338C147.242 455.679 145.885 464.284 142.131 471.532C138.932 475.579 134.31 477.656 129.621 477.166C126.131 477.166 123.302 480.471 123.302 484.554C123.302 488.637 126.131 491.947 129.621 491.947C138.094 492.519 146.313 488.452 151.869 480.945C155.412 475.63 157.66 469.289 158.373 462.603C165.036 467.846 172.879 470.646 180.909 470.651H400.259C408.287 470.646 416.13 467.846 422.794 462.603C423.508 469.29 425.755 475.631 429.298 480.945C434.85 488.452 443.072 492.519 451.546 491.947C455.032 491.947 457.861 488.637 457.861 484.554C457.861 480.471 455.032 477.166 451.546 477.166C446.867 477.656 442.253 475.584 439.059 471.557C435.274 464.314 433.908 455.694 435.216 447.348L482.498 360.419H496.157C502.384 360.429 508.358 357.547 512.761 352.397C517.168 347.252 519.644 340.267 519.644 332.982C519.644 325.703 517.168 318.717 512.761 313.572C508.359 308.422 502.384 305.541 496.157 305.551H485.344V77.4431C485.326 55.1259 475.139 34.5152 458.615 23.3632C442.091 12.2123 421.741 12.2123 405.222 23.3632C388.698 34.5141 378.509 55.1246 378.488 77.4431V86.0473C373.658 87.3722 369.239 90.2437 365.718 94.337L346.074 117.314H346.079C344.272 119.428 343.73 122.603 344.708 125.367C345.687 128.125 347.987 129.929 350.543 129.929H419.067C421.623 129.929 423.928 128.125 424.906 125.367C425.884 122.603 425.342 119.428 423.536 117.314L403.896 94.3317C400.375 90.2383 395.956 87.3721 391.122 86.0472V77.443C391.14 60.4048 398.922 44.6706 411.538 36.1595C424.149 27.6481 439.686 27.6481 452.302 36.1595C464.914 44.6709 472.695 60.4048 472.713 77.443V305.551H424.075C421.722 294.116 416.143 283.945 408.243 276.67C400.342 269.401 390.577 265.452 380.526 265.463C374.146 265.463 367.84 267.087 362.045 270.226C356.282 251.296 343.608 236.356 327.473 229.468C311.336 222.586 293.416 224.467 278.587 234.603C263.759 244.743 253.563 262.085 250.77 281.919C239.78 274.454 226.415 273.526 214.751 279.419C205.638 266.783 192.877 258.498 178.887 256.137C164.901 253.775 150.659 257.503 138.863 266.607C127.067 275.716 118.54 289.574 114.896 305.551H85.0166C76.6487 305.566 68.9192 310.799 64.742 319.279C60.5603 327.759 60.5603 338.204 64.742 346.69C68.9193 355.171 76.6487 360.404 85.0166 360.418L85.0106 360.42ZM403.821 115.155H365.798L374.651 104.793C380.335 98.4465 389.28 98.4465 394.965 104.793L403.821 115.155ZM423.84 440.74C418.728 450.19 409.823 455.912 400.261 455.882H180.911C171.349 455.913 162.444 450.19 157.337 440.74L113.655 360.43H267.138V398.136V398.131C267.13 404.085 269.143 409.802 272.739 414.014C276.335 418.226 281.217 420.597 286.306 420.597C291.395 420.597 296.273 418.226 299.869 414.014C303.464 409.802 305.478 404.085 305.469 398.131V360.43H467.526L423.84 440.74ZM387.06 320.348L387.055 327.988C387.077 334.917 389.845 341.443 394.555 345.65H305.469V320.342L387.06 320.348ZM506.972 332.994C506.963 339.979 502.129 345.64 496.158 345.65H417.886C422.597 341.443 425.368 334.916 425.386 327.987V320.342H496.158C502.129 320.352 506.962 326.013 506.971 332.993L506.972 332.994ZM170.665 270.238C185.48 270.253 199.342 278.775 207.759 293.039C209.662 296.256 213.381 297.184 216.241 295.148C221.868 291.152 228.531 289.631 235.03 290.858C241.53 292.091 247.443 295.988 251.708 301.855C253.528 304.19 256.432 304.876 258.882 303.551C261.425 302.195 262.971 299.128 262.764 295.869C262.707 294.89 262.641 293.91 262.641 292.91C262.636 275.269 270.171 258.797 282.721 249.018C295.266 239.238 311.165 237.449 325.076 244.249C338.987 251.049 349.07 265.541 351.938 282.857C352.352 285.327 353.815 287.384 355.815 288.306C357.816 289.234 360.085 288.904 361.83 287.435C367.259 282.795 373.802 280.28 380.522 280.259C388.476 280.244 396.151 283.677 402.07 289.894C407.988 296.112 411.725 304.669 412.566 313.923C412.615 314.165 412.676 314.403 412.751 314.64V327.987C412.738 332.198 409.817 335.606 406.221 335.606C402.621 335.606 399.699 332.198 399.686 327.987V312.953C399.686 308.87 396.861 305.56 393.372 305.56H299.153C295.663 305.56 292.834 308.87 292.834 312.953V398.129C292.838 400.161 292.155 402.114 290.931 403.548C289.701 404.986 288.04 405.795 286.304 405.795C284.567 405.795 282.902 404.986 281.677 403.548C280.452 402.114 279.764 400.161 279.773 398.129V312.953C279.769 308.87 276.944 305.56 273.454 305.56H128.116C131.178 295.219 136.924 286.254 144.556 279.923C152.184 273.587 161.313 270.2 170.668 270.236L170.665 270.238ZM85.0117 320.342H267.136V345.645L85.0117 345.65C79.0497 345.629 74.2203 339.974 74.2203 332.994C74.2203 326.019 79.0497 320.358 85.0117 320.343V320.342ZM384.803 225.238C381.314 225.238 378.485 221.928 378.485 217.845V153.114C378.485 149.031 381.314 145.727 384.803 145.727C388.293 145.727 391.118 149.031 391.118 153.114V217.845C391.118 219.804 390.453 221.686 389.272 223.072C388.086 224.459 386.478 225.237 384.804 225.237L384.803 225.238ZM340.183 191.481L347.93 159.709V159.704C348.886 155.78 352.38 153.507 355.738 154.631C359.092 155.749 361.035 159.838 360.079 163.761L352.332 195.533C351.376 199.456 347.877 201.729 344.524 200.611C341.17 199.492 339.227 195.399 340.183 191.476V191.481ZM418.094 195.538L410.347 163.766V163.761C409.391 159.838 411.334 155.749 414.687 154.631C418.041 153.507 421.539 155.78 422.496 159.704L430.242 191.476H430.238C431.198 195.399 429.255 199.492 425.902 200.611C422.544 201.73 419.05 199.456 418.094 195.533V195.538ZM144.969 210.112C151.191 210.112 157.153 207.225 161.55 202.08C165.948 196.935 168.42 189.955 168.42 182.681C168.424 175.407 165.952 168.426 161.555 163.282C157.157 158.137 151.195 155.245 144.973 155.245C138.756 155.245 132.789 158.137 128.392 163.282C123.994 168.427 121.527 175.402 121.527 182.681C121.531 189.95 124.003 196.925 128.401 202.066C132.794 207.211 138.756 210.103 144.97 210.113L144.969 210.112ZM144.969 170.024C149.345 170.024 153.288 173.107 154.963 177.835C156.637 182.562 155.712 188.006 152.623 191.625C149.53 195.244 144.876 196.327 140.836 194.367C136.796 192.408 134.16 187.794 134.16 182.68C134.165 175.695 139.003 170.034 144.969 170.024L144.969 170.024ZM547.549 225.392C541.332 225.397 535.369 228.284 530.972 233.429C526.575 238.574 524.103 245.555 524.103 252.829C524.107 260.103 526.575 267.083 530.972 272.222C535.37 277.367 541.336 280.26 547.554 280.26C553.771 280.254 559.738 277.367 564.13 272.222C568.528 267.078 571 260.097 571 252.823C570.991 245.549 568.519 238.579 564.121 233.435C559.724 228.295 553.766 225.403 547.549 225.392H547.549ZM547.549 265.475C543.178 265.475 539.234 262.392 537.56 257.664C535.889 252.942 536.815 247.498 539.904 243.88C542.997 240.266 547.646 239.183 551.686 241.137C555.727 243.096 558.362 247.71 558.362 252.824C558.358 259.81 553.519 265.47 547.549 265.475L547.549 265.475ZM76.4509 440.607C82.6684 440.607 88.635 437.715 93.0322 432.57C97.4298 427.425 99.8974 420.45 99.8974 413.176C99.8974 405.897 97.4298 398.922 93.0322 393.777C88.6346 388.632 82.6682 385.74 76.4509 385.74C70.229 385.74 64.2668 388.632 59.8696 393.777C55.472 398.922 53 405.897 53 413.176C53.0088 420.445 55.4808 427.42 59.8785 432.565C64.2717 437.705 70.2337 440.597 76.4508 440.607H76.4509ZM76.4509 400.52C80.8221 400.52 84.7659 403.602 86.4404 408.33C88.1149 413.057 87.1895 418.501 84.0962 422.12C81.0028 425.739 76.354 426.822 72.3136 424.863C68.2733 422.904 65.6378 418.29 65.6378 413.175C65.6422 406.19 70.4806 400.53 76.4512 400.519L76.4509 400.52Z" fill="#FDB90C"/>
</svg>
