<svg width="934" height="934" viewBox="0 0 934 934" fill="none" xmlns="http://www.w3.org/2000/svg">
<path d="M730.027 138.813C686.939 144.766 638.605 149.115 586.36 151.803L589.146 139.058C589.511 137.391 589.1 135.667 588.042 134.345C586.98 133.022 585.376 132.261 583.683 132.261H557.876C554.783 132.261 552.277 134.772 552.277 137.86V153.276C496.089 155.287 437.261 155.287 381.077 153.276V137.86C381.077 134.766 378.567 132.261 375.478 132.261H349.681C347.978 132.261 346.379 133.032 345.322 134.345C344.254 135.667 343.853 137.391 344.207 139.048L346.983 151.803C294.732 149.115 246.399 144.761 203.33 138.813C200.267 138.402 197.439 140.521 197.012 143.6C196.585 146.662 198.731 149.49 201.798 149.917C246.038 156.016 295.72 160.469 349.465 163.157L353.403 181.198H346.595C343.502 181.198 340.996 183.709 340.996 186.797C340.996 247.672 318.475 288.573 297.434 288.573C294.34 288.573 291.835 291.084 291.835 294.172V608.799C291.835 611.893 294.345 614.398 297.434 614.398H635.927C639.021 614.398 641.526 611.887 641.526 608.799L641.521 294.159C641.521 291.065 639.01 288.56 635.922 288.56C614.891 288.555 592.359 247.648 592.359 186.784C592.359 183.69 589.849 181.185 586.76 181.185H579.953L583.88 163.144C637.629 160.456 687.323 156.003 731.56 149.904C734.622 149.477 736.763 146.649 736.346 143.586C735.924 140.524 733.133 138.414 730.029 138.805L730.027 138.813ZM563.467 143.47H576.722L568.477 181.199H563.461V143.47H563.467ZM381.067 164.496C409.171 165.491 437.895 166.043 466.671 166.043C495.447 166.043 524.155 165.491 552.259 164.496V181.194H544.457C541.363 181.194 538.858 183.704 538.858 186.793C538.858 221.933 506.483 250.522 466.686 250.522C426.874 250.522 394.498 221.934 394.498 186.793C394.498 183.699 391.987 181.194 388.899 181.194H381.065L381.067 164.496ZM369.869 143.47V181.199H364.853L356.619 143.47H369.869ZM630.309 603.203H303.015V591.51H630.309V603.203ZM581.226 192.403C582.502 249.19 603.215 293.778 630.309 299.231V580.311H303.015V299.218C330.114 293.775 350.833 249.191 352.114 192.39H383.521C386.724 231.098 422.797 261.718 466.682 261.718C510.546 261.718 546.63 231.087 549.822 192.39L581.223 192.395L581.226 192.403ZM515.128 376.616H490.742L507.997 335.69C508.726 333.966 508.533 331.981 507.502 330.419C506.471 328.856 504.716 327.908 502.835 327.908L445.086 327.914C442.331 327.914 439.977 329.929 439.555 332.653L427.602 409.347C427.357 410.982 427.831 412.638 428.93 413.888C430.018 415.133 431.56 415.888 433.253 415.805L451.367 415.43L438.524 489.716C438.071 492.336 439.519 494.904 441.982 495.878C442.654 496.149 443.357 496.274 444.034 496.274C445.878 496.274 447.665 495.362 448.722 493.743L519.81 385.289C520.93 383.57 521.034 381.367 520.055 379.555C519.081 377.737 517.19 376.617 515.127 376.617L515.128 376.616ZM454.158 465.023L463.564 410.654C463.84 409.003 463.377 407.315 462.278 406.044C461.215 404.805 459.663 404.096 458.038 404.096H457.929L439.71 404.471L449.887 339.117H494.414L477.154 380.049C476.425 381.773 476.618 383.752 477.649 385.32C478.685 386.882 480.451 387.82 482.316 387.82H504.774L454.158 465.023Z" fill="#F0B800"/>
</svg>
