<svg width="532" height="642" viewBox="0 0 532 642" fill="none" xmlns="http://www.w3.org/2000/svg">
<path d="M201.035 245.986C201.035 245.986 160.607 165.566 158.551 161.513C156.496 157.459 151.697 148.672 145.531 142.591C133.882 131.103 118.124 125.696 102.359 126.371C86.6001 127.045 71.5249 135.158 61.2427 147.319C58.5038 150.699 57.132 154.079 55.7602 157.454L2.3116 305.451C0.25625 310.184 -0.427278 316.265 0.256247 320.993L31.0907 608.878C33.1461 627.8 48.9057 641.314 67.4084 641.314H71.519C92.0774 639.287 106.465 621.719 104.409 601.444L80.4235 377.083L136.615 252.063L153.062 284.499C157.173 291.933 163.339 297.34 171.565 300.041L229.813 316.936C227.757 314.235 226.385 310.855 225.702 306.801C220.219 287.879 227.074 268.958 240.777 256.792L201.035 245.986Z" />
<path d="M210.628 60.145C210.628 93.3635 183.326 120.29 149.642 120.29C115.964 120.29 88.6559 93.3647 88.6559 60.145C88.6559 26.9253 115.963 0 149.642 0C183.325 0 210.628 26.9253 210.628 60.145Z" fill="#F5B40C"/>
<path d="M529.264 306.131L475.815 158.134C474.443 154.08 472.388 150.7 469.649 147.999C459.373 135.837 444.297 127.724 428.532 127.051C412.773 125.698 396.326 131.784 385.361 143.271C379.195 149.352 374.396 158.138 372.341 162.193C370.285 166.248 329.857 246.666 329.857 246.666L264.072 265.588C247.625 270.321 238.719 287.216 243.513 302.758C247.624 316.272 259.96 324.385 272.976 324.385C275.715 324.385 278.459 323.711 281.198 323.032L360.007 300.727C368.229 298.7 375.082 292.619 379.194 285.185L395.641 252.748L451.833 377.769L427.847 602.13C425.792 621.725 440.179 639.973 460.737 642H464.848C483.351 642 499.11 628.486 501.165 609.563L532 321.679C532 316.262 531.316 310.86 529.261 306.127L529.264 306.131Z" fill="#F5B40C"/>
<path d="M442.239 60.145C442.239 93.3635 414.932 120.29 381.252 120.29C347.569 120.29 320.266 93.3647 320.266 60.145C320.266 26.9253 347.568 0 381.252 0C414.931 0 442.239 26.9253 442.239 60.145Z" fill="#F5B40C"/>
</svg>
