<svg width="934" height="934" viewBox="0 0 934 934" fill="none" xmlns="http://www.w3.org/2000/svg">
<g filter="url(#filter0_d_0_1)">
<path d="M726.667 398.933H616.12L597.625 372.824L562.459 320.631C561.073 318.568 558.75 317.334 556.266 317.334H431.495C434.985 305.297 436.803 292.792 436.803 280C436.803 205.891 376.511 145.6 302.403 145.6C228.295 145.6 168.003 205.892 168.003 280C168.003 330.703 196.476 376.11 239.893 398.932H175.472C171.347 398.932 168.003 402.276 168.003 406.401V510.401C168.003 513.615 170.061 516.469 173.107 517.485L230.681 536.678C233.488 572.647 263.593 601.069 300.269 601.069C336.269 601.069 365.982 573.694 369.722 538.667H563.602C565.441 555.777 573.545 571.678 586.351 583.027C590.232 586.678 594.44 589.725 599.159 592.319C609.414 598.043 621.132 601.069 633.065 601.069C663.503 601.069 690.263 581.564 699.685 552.444C701.086 547.918 701.868 543.303 702.362 538.668H757.862C761.987 538.668 765.331 535.324 765.331 531.199V437.6C765.331 416.277 747.982 398.933 726.665 398.933L726.667 398.933ZM432.533 332.267H552.293L585.34 381.308L597.819 398.933H432.539L432.533 332.267ZM182.933 280.001C182.933 214.127 236.527 160.532 302.403 160.532C368.279 160.532 421.872 214.125 421.872 280.001C421.872 292.855 419.872 305.392 415.929 317.335H399.117C399.149 317.262 399.164 317.184 399.195 317.105C399.341 316.725 399.44 316.324 399.581 315.939C400.748 312.783 401.737 309.564 402.591 306.303C402.888 305.173 403.128 304.038 403.388 302.902C403.998 300.21 404.492 297.501 404.883 294.756C405.044 293.631 405.227 292.512 405.352 291.381C405.768 287.611 406.044 283.814 406.044 280.001C406.044 222.856 359.555 176.365 302.408 176.365C245.258 176.365 198.768 222.855 198.768 280.001C198.768 282.835 198.893 285.647 199.123 288.433C199.195 289.35 199.347 290.246 199.445 291.157C199.649 293.017 199.841 294.876 200.143 296.71C200.32 297.788 200.576 298.845 200.784 299.913C201.107 301.553 201.414 303.194 201.815 304.803C202.091 305.923 202.435 307.012 202.753 308.121C203.185 309.652 203.612 311.184 204.112 312.684C204.487 313.809 204.919 314.902 205.336 316.012C205.873 317.454 206.409 318.897 207.008 320.309C207.477 321.418 207.998 322.496 208.503 323.585C209.143 324.96 209.784 326.324 210.482 327.668C211.039 328.741 211.633 329.783 212.227 330.829C212.966 332.137 213.711 333.439 214.508 334.71C215.149 335.736 215.82 336.741 216.498 337.746C217.331 338.986 218.18 340.21 219.06 341.413C219.784 342.392 220.529 343.35 221.284 344.304C222.206 345.465 223.149 346.611 224.117 347.736C224.914 348.658 225.727 349.564 226.555 350.46C227.565 351.554 228.602 352.616 229.664 353.668C230.529 354.522 231.404 355.366 232.3 356.194C233.399 357.21 234.529 358.189 235.669 359.158C236.596 359.944 237.524 360.72 238.482 361.47C239.669 362.408 240.893 363.298 242.123 364.184C243.102 364.887 244.076 365.59 245.081 366.262C246.362 367.116 247.68 367.918 249.003 368.715C250.024 369.33 251.034 369.955 252.081 370.538C253.456 371.304 254.873 372.007 256.284 372.715C257.336 373.241 258.378 373.783 259.451 374.272C260.935 374.949 262.456 375.554 263.982 376.158C265.044 376.58 266.086 377.033 267.164 377.423C267.419 377.512 267.659 377.632 267.909 377.72L264.399 393.308C216.065 377.152 182.935 331.615 182.935 280.002L182.933 280.001ZM284.001 374.308V374.298L293.444 332.267H417.605V398.934H278.432L284.001 374.308ZM271.215 363.016C269.074 362.214 266.97 361.35 264.923 360.397C264.897 360.386 264.876 360.37 264.85 360.36C262.746 359.376 260.694 358.308 258.689 357.173C258.048 356.808 257.444 356.397 256.814 356.016C255.455 355.199 254.09 354.381 252.783 353.49C252.043 352.99 251.345 352.449 250.626 351.928C249.47 351.094 248.314 350.261 247.199 349.376C246.465 348.787 245.762 348.162 245.043 347.553C244.007 346.673 242.97 345.787 241.981 344.86C241.267 344.193 240.585 343.496 239.897 342.808C238.96 341.876 238.027 340.933 237.137 339.959C236.465 339.225 235.819 338.475 235.173 337.719C234.324 336.73 233.486 335.73 232.684 334.704C232.064 333.917 231.47 333.11 230.876 332.303C230.111 331.256 229.361 330.193 228.642 329.11C228.085 328.277 227.543 327.433 227.017 326.579C226.335 325.475 225.678 324.355 225.043 323.22C224.553 322.339 224.064 321.459 223.605 320.563C223.006 319.407 222.449 318.23 221.902 317.048C221.48 316.136 221.059 315.225 220.668 314.292C220.157 313.079 219.689 311.839 219.236 310.6C218.892 309.668 218.538 308.74 218.22 307.792C217.793 306.511 217.428 305.204 217.059 303.897C216.798 302.959 216.512 302.037 216.277 301.089C215.939 299.714 215.673 298.318 215.397 296.923C215.22 296.016 215.012 295.12 214.861 294.204C214.605 292.652 214.439 291.074 214.267 289.501C214.184 288.72 214.059 287.954 213.991 287.167C213.798 284.798 213.689 282.412 213.689 280.001C213.689 231.089 253.481 191.298 302.391 191.298C351.313 191.298 391.105 231.09 391.105 280.001C391.105 283.49 390.881 286.933 390.495 290.329C390.365 291.459 390.12 292.563 389.949 293.683C389.605 295.928 389.245 298.167 388.73 300.365C388.428 301.667 388.021 302.938 387.657 304.219C387.1 306.193 386.516 308.157 385.818 310.089C385.339 311.417 384.782 312.714 384.235 314.021C383.771 315.136 383.245 316.235 382.73 317.334H287.47C283.975 317.334 280.949 319.756 280.183 323.162L271.215 363.016ZM300.267 586.136C269.975 586.136 245.33 561.496 245.33 531.204C245.33 500.912 269.97 476.267 300.267 476.267C330.559 476.267 355.199 500.907 355.199 531.204C355.199 561.491 330.559 586.136 300.267 586.136V586.136ZM685.454 547.934C678.058 570.783 657.006 586.136 633.068 586.136C623.547 586.136 614.59 583.834 606.407 579.261C602.756 577.251 599.542 574.923 596.423 571.996C584.803 561.699 578.136 546.834 578.136 531.204C578.136 500.912 602.776 476.266 633.068 476.266C633.24 476.261 633.432 476.266 633.61 476.266C634.198 476.266 634.849 476.277 635.735 476.365C665.041 477.746 688.005 501.829 688.005 531.204C688 536.845 687.135 542.506 685.453 547.933L685.454 547.934ZM750.402 523.736H702.542C702.359 521.991 702.068 520.273 701.755 518.564C701.693 518.215 701.661 517.851 701.594 517.502C701.172 515.372 700.651 513.278 700.036 511.221C699.844 510.564 699.588 509.939 699.375 509.294C698.917 507.903 698.458 506.507 697.916 505.158C697.609 504.382 697.239 503.643 696.901 502.882C696.38 501.7 695.864 500.518 695.276 499.372C694.87 498.575 694.416 497.809 693.979 497.033C693.385 495.971 692.791 494.903 692.14 493.877C691.651 493.101 691.125 492.356 690.609 491.606C689.937 490.627 689.26 489.653 688.541 488.71C687.979 487.971 687.385 487.262 686.791 486.549C686.047 485.648 685.286 484.757 684.5 483.898C683.87 483.21 683.218 482.544 682.562 481.882C681.745 481.059 680.906 480.252 680.047 479.466C679.354 478.835 678.651 478.221 677.937 477.622C677.047 476.872 676.135 476.153 675.208 475.45C674.463 474.882 673.713 474.33 672.943 473.794C671.979 473.127 670.995 472.492 670 471.872C669.213 471.382 668.427 470.893 667.614 470.429C666.578 469.841 665.521 469.299 664.453 468.762C663.63 468.351 662.812 467.929 661.974 467.549C660.859 467.044 659.719 466.601 658.578 466.158C657.739 465.83 656.916 465.486 656.062 465.195C654.843 464.773 653.593 464.429 652.343 464.075C651.526 463.846 650.718 463.58 649.885 463.377C648.494 463.038 647.067 462.794 645.645 462.544C644.922 462.419 644.218 462.247 643.489 462.143C641.323 461.83 639.13 461.611 636.906 461.507C635.708 461.372 634.38 461.356 633.047 461.356C630.713 461.356 628.411 461.481 626.135 461.705C625.375 461.778 624.64 461.929 623.89 462.028C622.39 462.226 620.885 462.419 619.416 462.71C618.531 462.887 617.677 463.132 616.802 463.341C615.5 463.653 614.192 463.955 612.921 464.341C612.01 464.617 611.125 464.95 610.229 465.257C609.036 465.674 607.843 466.085 606.677 466.559C605.776 466.929 604.901 467.346 604.015 467.747C602.906 468.257 601.796 468.773 600.718 469.335C599.843 469.794 598.994 470.288 598.14 470.783C597.104 471.382 596.083 471.992 595.083 472.643C594.249 473.184 593.437 473.752 592.63 474.325C591.666 475.012 590.718 475.715 589.791 476.45C589.01 477.064 588.25 477.7 587.499 478.346C586.604 479.117 585.739 479.908 584.885 480.726C584.166 481.408 583.463 482.101 582.776 482.815C581.953 483.669 581.166 484.549 580.385 485.445C579.739 486.19 579.093 486.929 578.479 487.7C577.734 488.632 577.031 489.601 576.333 490.57C575.765 491.361 575.187 492.148 574.651 492.966C573.984 493.981 573.369 495.033 572.755 496.085C572.27 496.913 571.765 497.731 571.317 498.585C570.723 499.7 570.203 500.856 569.666 502.007C569.281 502.846 568.864 503.663 568.51 504.518C567.984 505.788 567.536 507.096 567.083 508.403C566.812 509.184 566.499 509.95 566.255 510.742C565.744 512.408 565.328 514.116 564.942 515.835C564.838 516.304 564.687 516.752 564.593 517.226C564.156 519.367 563.817 521.544 563.578 523.752L369.738 523.736C369.503 521.528 369.159 519.351 368.722 517.21C368.628 516.736 368.477 516.288 368.373 515.82C367.988 514.101 367.571 512.393 367.061 510.726C366.816 509.929 366.503 509.169 366.232 508.387C365.779 507.08 365.337 505.773 364.805 504.502C364.451 503.653 364.04 502.835 363.654 502.002C363.118 500.846 362.592 499.689 361.998 498.57C361.55 497.721 361.05 496.908 360.566 496.08C359.951 495.023 359.331 493.971 358.665 492.955C358.128 492.137 357.55 491.351 356.982 490.559C356.284 489.585 355.581 488.622 354.837 487.689C354.222 486.919 353.576 486.179 352.93 485.434C352.154 484.538 351.363 483.658 350.54 482.804C349.852 482.09 349.144 481.398 348.43 480.715C347.576 479.903 346.706 479.106 345.816 478.335C345.066 477.684 344.3 477.054 343.524 476.439C342.597 475.705 341.649 475.002 340.685 474.314C339.878 473.736 339.066 473.174 338.232 472.632C337.232 471.981 336.206 471.372 335.175 470.773C334.321 470.278 333.472 469.783 332.597 469.325C331.519 468.757 330.409 468.247 329.3 467.736C328.42 467.33 327.545 466.919 326.644 466.549C325.477 466.07 324.284 465.658 323.086 465.247C322.191 464.934 321.31 464.606 320.399 464.33C319.123 463.945 317.821 463.642 316.519 463.33C315.649 463.122 314.789 462.877 313.904 462.7C312.435 462.408 310.93 462.215 309.43 462.017C308.68 461.919 307.946 461.773 307.185 461.695C304.909 461.471 302.607 461.346 300.274 461.346C297.967 461.346 295.691 461.471 293.441 461.689C292.691 461.762 291.967 461.903 291.222 461.997C289.732 462.189 288.243 462.387 286.784 462.674C285.92 462.846 285.081 463.07 284.227 463.273C282.925 463.58 281.623 463.892 280.347 464.273C279.461 464.538 278.602 464.846 277.732 465.142C276.524 465.554 275.326 465.981 274.149 466.46C273.284 466.809 272.441 467.189 271.591 467.575C270.456 468.09 269.331 468.627 268.227 469.2C267.399 469.627 266.586 470.075 265.779 470.533C264.701 471.148 263.644 471.794 262.602 472.465C261.831 472.965 261.06 473.465 260.31 473.991C259.279 474.71 258.284 475.471 257.295 476.247C256.592 476.799 255.878 477.346 255.196 477.924C254.206 478.762 253.263 479.642 252.326 480.533C251.706 481.122 251.071 481.689 250.477 482.293C249.493 483.293 248.566 484.351 247.644 485.413C247.159 485.97 246.649 486.496 246.18 487.069C244.998 488.512 243.894 490.012 242.831 491.549C242.67 491.778 242.487 491.996 242.331 492.226C241.128 494.012 240.008 495.856 238.972 497.752C238.665 498.309 238.409 498.903 238.118 499.471C237.425 500.825 236.737 502.184 236.128 503.59C235.8 504.345 235.529 505.127 235.227 505.898C234.732 507.163 234.248 508.424 233.826 509.721C233.55 510.569 233.326 511.434 233.081 512.299C232.727 513.559 232.383 514.825 232.097 516.111C231.894 517.023 231.732 517.939 231.566 518.861C231.43 519.611 231.243 520.34 231.133 521.101L182.936 505.018V413.873H269.056C269.072 413.873 269.087 413.883 269.103 413.883H612.276C612.302 413.883 612.328 413.873 612.354 413.873H726.672C737.135 413.873 745.937 420.722 749.088 430.138H695.478C692.89 430.138 690.489 431.482 689.129 433.68C687.77 435.883 687.645 438.633 688.801 440.945L709.599 482.549C710.864 485.08 713.447 486.674 716.276 486.674L750.412 486.669L750.402 523.736ZM750.402 471.736H720.886L707.552 445.07H750.402V471.736Z" fill="#F0B800"/>
<path d="M497.867 430.133H456.263C452.138 430.133 448.794 433.477 448.794 437.602C448.794 441.727 452.138 445.071 456.263 445.071H497.867C501.992 445.071 505.335 441.727 505.335 437.602C505.33 433.477 501.987 430.133 497.867 430.133Z" fill="#F0B800"/>
<path d="M298.04 286.053C299.326 286.98 300.858 287.465 302.405 287.465C303.201 287.465 303.993 287.34 304.769 287.085L349.572 272.153C353.483 270.845 355.598 266.616 354.291 262.705C352.988 258.798 348.77 256.674 344.843 257.986L309.869 269.637V212.798C309.869 208.673 306.526 205.33 302.401 205.33C298.275 205.33 294.932 208.673 294.932 212.798V279.996C294.937 282.397 296.088 284.647 298.041 286.053L298.04 286.053Z" fill="#F0B800"/>
</g>
<defs>
<filter id="filter0_d_0_1" x="164.003" y="145.6" width="605.329" height="463.469" filterUnits="userSpaceOnUse" color-interpolation-filters="sRGB">
<feFlood flood-opacity="0" result="BackgroundImageFix"/>
<feColorMatrix in="SourceAlpha" type="matrix" values="0 0 0 0 0 0 0 0 0 0 0 0 0 0 0 0 0 0 127 0" result="hardAlpha"/>
<feOffset dy="4"/>
<feGaussianBlur stdDeviation="2"/>
<feComposite in2="hardAlpha" operator="out"/>
<feColorMatrix type="matrix" values="0 0 0 0 0 0 0 0 0 0 0 0 0 0 0 0 0 0 0.25 0"/>
<feBlend mode="normal" in2="BackgroundImageFix" result="effect1_dropShadow_0_1"/>
<feBlend mode="normal" in="SourceGraphic" in2="effect1_dropShadow_0_1" result="shape"/>
</filter>
</defs>
</svg>
