<svg width="485" height="617" viewBox="0 0 485 617" fill="none" xmlns="http://www.w3.org/2000/svg">
<path d="M107.521 421.123C106.027 422.613 106.027 425.603 106.027 427.097C106.027 428.592 106.027 431.577 107.521 431.577C109.016 433.071 110.506 433.071 113.495 433.071C114.99 433.071 117.975 431.577 119.469 430.087C122.454 427.103 122.454 422.618 119.469 419.634C114.99 418.134 110.506 419.629 107.522 421.124L107.521 421.123Z"/>
<path d="M365.868 294.19C365.868 298.669 368.853 301.659 373.337 301.659C377.816 301.659 380.806 298.675 380.806 294.19C380.806 289.711 377.821 286.721 373.337 286.721C368.858 286.721 365.868 289.706 365.868 294.19Z" fill="#F5A304"/>
<path d="M52.2681 289.71C50.7733 291.205 50.7733 292.695 50.7733 295.684C50.7733 337.496 64.2106 376.324 88.1066 410.668C89.6014 412.163 92.5858 413.653 94.0806 413.653C95.5754 413.653 97.0651 413.653 98.5599 412.158C101.544 409.173 103.039 404.689 100.055 401.705C79.148 373.33 67.2 338.986 65.7053 303.142H343.465C347.945 303.142 350.934 300.158 350.934 295.673C350.934 291.194 347.95 288.204 343.465 288.204L58.2386 288.22C55.2542 286.725 53.7594 288.22 52.2646 289.71L52.2681 289.71Z" fill="#F5A304"/>
<path d="M271.788 615.257C276.267 615.257 279.257 612.272 279.257 607.788V482.351C295.684 479.366 310.617 473.392 325.549 465.924L471.896 612.271C473.39 613.765 474.88 613.766 476.375 613.766C477.87 613.766 480.854 613.765 482.349 612.271C485.333 609.286 485.333 604.802 482.349 601.818L338.989 458.458C395.734 425.603 434.562 362.884 434.562 292.698C434.562 291.203 433.067 288.218 431.578 286.724C430.083 285.229 428.593 285.229 427.099 285.229H401.713C397.234 285.229 394.244 288.213 394.244 292.698C394.244 297.177 397.229 300.166 401.713 300.166L419.625 300.161C415.146 395.735 337.489 470.401 241.919 470.401C204.585 470.401 170.236 459.948 140.372 439.041C137.387 437.546 132.903 437.546 129.919 440.536C126.934 443.52 128.424 448.005 131.414 450.989C135.893 453.973 140.372 456.963 143.361 458.458L1.49481 603.311C1.20799e-05 604.806 0 606.296 0 609.285C0 610.78 1.20799e-05 613.764 1.49481 615.259C2.98961 616.754 4.47921 616.754 7.46881 616.754C10.4532 616.754 11.948 616.754 11.948 615.259L158.295 468.913C173.227 476.381 188.159 480.86 204.587 483.845V609.282C204.587 613.761 207.571 616.751 212.055 616.751C216.535 616.751 219.524 613.766 219.524 609.282V486.829C226.993 488.323 234.456 488.323 241.926 488.323C249.395 488.323 256.858 488.323 264.327 486.829V609.282C264.322 612.271 268.801 615.256 271.785 615.256L271.788 615.257Z" fill="#F5A304"/>
<path d="M229.975 189.657C207.573 189.657 188.163 209.069 188.163 231.469V252.375C188.163 264.323 198.616 274.777 210.564 274.777H274.777C286.725 274.777 297.179 264.324 297.179 252.375V231.469C297.179 225.495 288.22 222.51 283.741 226.99C282.247 228.484 282.247 229.974 282.247 231.469L282.241 252.375C282.241 256.855 279.257 259.844 274.773 259.844H210.565C206.085 259.844 203.096 256.86 203.096 252.375V232.963C203.096 218.031 215.044 206.083 229.976 206.083H249.388C253.867 206.083 256.857 203.099 256.857 198.615C256.857 194.135 253.872 191.146 249.388 191.146L229.976 191.151L229.975 189.657Z" fill="#F5A304"/>
<path d="M270.295 200.11C267.31 203.095 268.8 207.579 271.79 210.563C273.284 212.058 274.774 212.058 276.269 212.058C277.764 212.058 280.748 210.563 282.243 209.074C285.227 206.089 283.738 201.605 280.748 198.621C277.764 197.126 273.284 197.126 270.295 200.11H270.295Z" fill="#F5A304"/>
<path d="M419.628 252.377V232.965C419.628 210.563 400.216 191.153 377.816 191.153H352.431C330.03 191.153 310.619 210.565 310.619 232.965V252.377C310.619 264.325 321.072 274.778 333.02 274.778H397.234C409.176 274.778 419.629 264.325 419.629 252.377H419.628ZM325.549 252.377V232.965C325.549 218.033 337.497 206.085 352.43 206.085H377.815C392.747 206.085 404.695 218.033 404.695 232.965V252.377C404.695 256.856 401.71 259.846 397.226 259.846H333.013C330.028 259.846 325.549 255.366 325.549 252.377H325.549Z" fill="#F5A304"/>
<path d="M65.7081 249.39V252.375C65.7081 264.322 76.1612 274.776 88.1095 274.776H150.828C162.776 274.776 173.229 264.323 173.229 252.375V232.963C173.229 210.561 153.817 191.151 131.417 191.151H106.027C101.548 191.151 97.0684 191.151 92.5895 194.135C91.0947 194.135 89.6051 195.63 88.1103 198.614C86.6155 200.109 86.6155 203.093 88.1103 204.588C89.6051 209.067 94.0842 210.562 97.0686 209.067C100.053 207.573 103.043 207.573 106.027 207.573H131.412C146.344 207.573 158.292 219.52 158.292 234.453V252.374C158.292 256.853 155.308 259.843 150.824 259.843H86.6103C82.1311 259.843 79.1415 256.858 79.1415 252.374V249.389C79.1415 244.91 76.157 241.921 71.6726 241.921C68.6934 241.921 65.709 244.91 65.709 249.389L65.7081 249.39Z" fill="#F5A304"/>
<path d="M74.6681 226.99C77.6525 226.99 80.6421 225.495 82.1369 222.511V216.537C80.6421 215.042 79.1525 213.553 77.6577 212.058C73.1785 210.563 70.1889 212.058 68.6993 216.537C67.2045 221.016 68.6993 224.006 73.1785 225.495C73.1733 226.99 74.6681 226.99 74.6681 226.99Z" fill="#F5A304"/>
<path d="M265.815 135.897V129.923C265.815 128.428 264.32 126.938 261.336 125.444C256.856 123.949 252.377 125.444 250.883 129.923C249.388 134.402 247.898 140.376 247.898 144.855V164.267C247.898 176.215 258.351 186.668 270.299 186.668H334.513C346.461 186.668 356.914 176.215 356.914 164.267V144.855C356.914 122.453 337.502 103.043 315.102 103.043H309.128C304.649 103.043 301.659 106.027 301.659 110.512C301.659 114.991 304.644 117.98 309.128 117.98H315.102C330.034 117.98 341.982 129.928 341.982 144.86V164.272C341.982 168.752 338.998 171.741 334.513 171.741H270.3C265.821 171.741 262.831 168.757 262.831 164.272V144.86C264.326 141.871 265.816 138.886 265.816 135.897H265.815Z" fill="#F5A304"/>
<path d="M280.748 119.47H283.733C288.212 117.975 289.707 113.496 288.212 110.512C286.717 106.033 282.238 104.538 279.253 106.033C277.759 106.033 276.269 107.527 274.774 110.512C273.279 112.007 273.279 114.991 274.774 116.486C274.779 117.981 277.764 119.47 280.748 119.47V119.47Z" fill="#F5A304"/>
<path d="M126.935 144.857V164.269C126.935 176.217 137.388 186.67 149.336 186.67H213.549C225.497 186.67 235.951 176.217 235.951 164.269V144.857C235.951 122.455 218.029 103.045 194.139 103.045H168.753C144.857 103.04 126.936 122.457 126.936 144.857H126.935ZM219.523 144.857V164.269C219.523 168.748 216.538 171.738 212.054 171.738H147.841C143.361 171.738 140.372 168.753 140.372 164.269V144.857C140.372 129.925 152.32 117.977 167.252 117.977H192.637C207.575 117.977 219.523 129.919 219.523 144.857H219.523Z" fill="#F5A304"/>
<path d="M112.001 104.537C112.001 109.016 114.986 112.006 119.47 112.006C123.949 112.006 126.939 109.021 126.939 104.537V74.6728C126.939 70.1936 123.955 67.204 119.47 67.204C114.991 67.204 112.001 70.1884 112.001 74.6728V104.537Z" fill="#F5A304"/>
<path d="M119.468 52.2701C123.947 52.2701 126.937 49.2857 126.937 44.8013C126.937 40.3221 123.953 37.3325 119.468 37.3325C114.989 37.3325 111.999 40.3169 111.999 44.8013C111.999 49.2805 114.989 52.2701 119.468 52.2701Z" fill="#F5A304"/>
<path d="M188.161 73.1768V7.4688C188.161 2.9896 185.177 0 180.693 0C176.213 0 173.224 2.9844 173.224 7.4688L173.229 73.1768C173.229 77.656 176.213 80.6456 180.698 80.6456C185.172 80.6456 188.161 76.1612 188.161 73.1768H188.161Z" fill="#F5A304"/>
<path d="M297.175 73.1768C297.175 77.656 300.159 80.6456 304.644 80.6456C309.123 80.6456 312.112 77.6612 312.112 73.1768V43.3128C312.112 38.8336 309.128 35.844 304.644 35.844C300.164 35.844 297.175 38.8284 297.175 43.3128V73.1768Z" fill="#F5A304"/>
<path d="M304.641 20.9115C309.121 20.9115 312.11 17.9271 312.11 13.4427C312.11 8.96348 309.126 5.97388 304.641 5.97388C300.162 5.97388 297.173 8.95828 297.173 13.4427C297.173 16.4323 300.162 20.9115 304.641 20.9115Z" fill="#F5A304"/>
<path d="M364.375 32.8595C359.896 32.8595 356.906 35.8439 356.906 40.3283V104.542C356.906 109.021 359.89 112.01 364.375 112.01C368.854 112.01 371.844 109.026 371.844 104.542L371.838 40.3229C371.838 35.8437 368.854 32.8593 364.375 32.8593V32.8595Z" fill="#F5A304"/>
</svg>
