<svg viewBox="0 0 512 512" xmlns="http://www.w3.org/2000/svg"><path d="M496 332h-12v-8a16.019 16.019 0 0 0-16-16H180v-6a10.011 10.011 0 0 0-10-10H94a10.011 10.011 0 0 0-10 10v6H36a16.019 16.019 0 0 0-16 16v128a8.009 8.009 0 0 0-8 8v8a8.009 8.009 0 0 0 8 8h61.013a32 32 0 0 0 61.974 0h206.026a32 32 0 0 0 61.974 0H472a12.013 12.013 0 0 0 12-12V340h8v28a4 4 0 0 0 8 0v-32a4 4 0 0 0-4-4ZM228 452h-32v-96h32Zm248-104H28v-16h448Zm-448 8h56v64H28Zm64 0h56v64H92Zm64 0h32v96h-32Zm80 0h56v64h-56Zm64 0h56v64h-56Zm64 0h56v64h-56Zm64 0h32v96h-32Zm40 64h8v16h-8Zm0-8v-56h8v56ZM92 302a2 2 0 0 1 2-2h76a2 2 0 0 1 2 2v6H92Zm-56 14h432a8.009 8.009 0 0 1 8 8H28a8.009 8.009 0 0 1 8-8ZM20 468v-8h8v8Zm92 24a24.034 24.034 0 0 1-23.752-20.576c-.073-.5-.124-1-.165-1.512-.009-.114-.019-.229-.026-.345a23.295 23.295 0 0 1-.057-1.563 24 24 0 0 1 48 0c0 .521-.022 1.043-.057 1.563-.007.116-.017.231-.026.345a23.525 23.525 0 0 1-.165 1.512A24.034 24.034 0 0 1 112 492Zm0-56a32.036 32.036 0 0 0-32 32H36v-12a4 4 0 0 0-4-4h-4v-24h120v40h-4a32.036 32.036 0 0 0-32-32Zm44 24h32v8h-32Zm40 8v-8h32v8Zm184 24a24.034 24.034 0 0 1-23.752-20.576c-.073-.5-.124-1-.165-1.512-.009-.114-.019-.229-.026-.345a23.295 23.295 0 0 1-.057-1.563 24 24 0 0 1 48 0c0 .521-.022 1.043-.057 1.563-.007.116-.017.231-.026.345a23.525 23.525 0 0 1-.165 1.512A24.034 24.034 0 0 1 380 492Zm0-56a32.036 32.036 0 0 0-32 32H236v-40h184v40h-8a32.036 32.036 0 0 0-32-32Zm48 32v-8h32v8Zm44 0h-4v-24h8v20a4 4 0 0 1-4 4Z" fill="#f0b800" class="fill-000000"></path><path d="M112 452.031A15.969 15.969 0 1 0 127.969 468 15.987 15.987 0 0 0 112 452.031Zm0 23.938a7.969 7.969 0 1 1 7.969-7.969 7.978 7.978 0 0 1-7.969 7.969ZM380 452.031A15.969 15.969 0 1 0 395.969 468 15.987 15.987 0 0 0 380 452.031Zm0 23.938a7.969 7.969 0 1 1 7.969-7.969 7.978 7.978 0 0 1-7.969 7.969ZM48.906 130.087l-16.059 8.4a4 4 0 0 0-2 4.628l3.25 11.551a4 4 0 0 0 3.734 2.914l16.12.469-3.6 23.575a4 4 0 0 0 5.038 4.454l15.4-4.33a4 4 0 0 0 2.386-1.859l12.027-20.939 28.7.83q5.565.16 11.119.161A383.349 383.349 0 0 0 228.913 145.6l3.171-.893-32.35 93.99a4 4 0 0 0 4.866 5.153l46.209-12.991a4.011 4.011 0 0 0 2.116-1.449l42.766-56.977 28.455-3.779a3.943 3.943 0 0 0 .558-.114l19.251-5.42a7.991 7.991 0 0 0 5.535-9.863l-6.5-23.115a8.006 8.006 0 0 0-9.86-5.522l-1.961.551 7.909-10.537 76.566-21.524a157.554 157.554 0 0 0 62.966-34.881 18.088 18.088 0 0 0 5.91-13.359 18.077 18.077 0 0 0-12.087-17.045 131.634 131.634 0 0 0-81.395-1.785L283.19 58.49l-94.237-25.709a3.979 3.979 0 0 0-2.135.009l-30.81 8.659a4 4 0 0 0-1.293 7.07l46.816 34.542-90.631 27.27L49.485 64.7a4 4 0 0 0-3.469-.639l-23.1 6.5a4 4 0 0 0-2.452 5.719Zm18.154 44.4L59.2 176.7l4.521-29.644 22.773-6.4Zm247.512-27.2 3.949 14.051-16.1 2.138Zm20.717-14.968 6.5 23.107-15.4 4.335-5.77-20.529 2.645-3.525ZM166.047 46.938l21.869-6.147 80.821 22.048L211.1 80.181ZM46.291 72.293l61.453 45.658a4 4 0 0 0 3.538.62L393.345 33.7a123.307 123.307 0 0 1 63.528-2.045l-15.681 4.408a4 4 0 1 0 2.166 7.7l27.756-7.8a9.982 9.982 0 0 1 2.679 2.025 10.1 10.1 0 0 1 2.343 4.143 10.239 10.239 0 0 1 .384 2.74 10.076 10.076 0 0 1-3.291 7.44 149.518 149.518 0 0 1-59.751 33.1l-66.5 18.693 8.722-11.62a4 4 0 1 0-6.4-4.8L247.34 223.525l-37.557 10.558L248.465 121.7a4 4 0 0 0-7.565-2.6l-5.649 16.414-8.5 2.392a375.38 375.38 0 0 1-112.6 13.882l-24.413-.706 8.58-14.936a4 4 0 0 0-4.552-5.843l-34.687 9.752a4 4 0 0 0-2.871 3.247l-1.034 6.784-14.164-.412-1.575-5.6 16.744-8.756a4 4 0 0 0 1.682-5.413l-28.01-52.986Z" fill="#f0b800" class="fill-000000"></path><path d="M404.128 63.1A8 8 0 0 0 414 68.64l7.7-2.165a8 8 0 0 0 5.536-9.867l-4.331-15.4a8 8 0 0 0-9.866-5.537l-7.7 2.165A8.01 8.01 0 0 0 399.8 47.7ZM415.2 43.371l4.336 15.4-7.7 2.165-4.329-15.4ZM424 300a20 20 0 1 0-20-20 20.023 20.023 0 0 0 20 20Zm0-32a12 12 0 1 1-12 12 12.013 12.013 0 0 1 12-12ZM420 244v4a4 4 0 0 0 8 0v-4a4 4 0 0 0-8 0ZM409.382 208.188a4 4 0 0 0 6.212-5.042 56.059 56.059 0 0 0-6.081-6.388 4 4 0 1 0-5.34 5.957 47.953 47.953 0 0 1 5.209 5.473ZM386.376 184.359a4 4 0 0 0-2 7.746 47.559 47.559 0 0 1 7.136 2.463 4 4 0 0 0 3.2-7.33 55.488 55.488 0 0 0-8.336-2.879ZM424.38 218.387a4 4 0 0 0-7.477 2.845 47.658 47.658 0 0 1 2.114 7.248 4 4 0 1 0 7.834-1.621 55.558 55.558 0 0 0-2.471-8.472ZM199.883 267.856a88.453 88.453 0 0 1-7.8-.792 4 4 0 1 0-1.16 7.915c2.808.412 5.67.7 8.509.865.078 0 .154.006.231.006a4 4 0 0 0 .224-7.994ZM169.526 260.605a4 4 0 0 0-3.205 7.33 96.511 96.511 0 0 0 7.98 3.075 4 4 0 0 0 2.543-7.585 87.8 87.8 0 0 1-7.318-2.82ZM247.083 261.854a148.659 148.659 0 0 1-7.705 2.071 4 4 0 1 0 1.867 7.779 157.95 157.95 0 0 0 8.123-2.183 4 4 0 1 0-2.285-7.667ZM223.687 266.8c-2.624.336-5.294.605-7.941.8a4 4 0 0 0 .29 7.989c.1 0 .2 0 .3-.011 2.788-.206 5.6-.489 8.368-.843a4 4 0 1 0-1.015-7.935ZM132.15 242.823a4 4 0 1 0 6.039-5.246 90.746 90.746 0 0 1-4.871-6.138 4 4 0 0 0-6.48 4.692 96.108 96.108 0 0 0 5.312 6.692ZM149.471 248.441a4 4 0 0 0-5.02 6.23 96.725 96.725 0 0 0 6.889 5.062 4 4 0 1 0 4.447-6.65 89.32 89.32 0 0 1-6.316-4.642ZM269.374 253.188a147.425 147.425 0 0 1-7.271 3.289 4 4 0 1 0 3.1 7.376c2.57-1.08 5.15-2.246 7.665-3.466a4 4 0 0 0-3.492-7.2ZM324.908 207.855l-5.514 6.066a4 4 0 0 0 5.919 5.382l5.515-6.066a4 4 0 1 0-5.92-5.382ZM343.813 190.539a55.7 55.7 0 0 0-7.176 5.135 4 4 0 0 0 5.158 6.115 47.594 47.594 0 0 1 6.142-4.395 4 4 0 1 0-4.124-6.855ZM289.977 241.04a148.001 148.001 0 0 1-6.644 4.418 4 4 0 1 0 4.248 6.78c2.36-1.48 4.717-3.047 7-4.659a4 4 0 0 0-4.609-6.539ZM308.344 225.722a147.844 147.844 0 0 1-5.843 5.434 4 4 0 0 0 5.287 6c2.1-1.847 4.17-3.774 6.161-5.73a4 4 0 0 0-5.605-5.708ZM360.132 183.972a4 4 0 1 0 1.773 7.8 47.656 47.656 0 0 1 7.476-1.085 4 4 0 0 0-.516-7.983 55.724 55.724 0 0 0-8.733 1.268ZM118.424 212.324a4 4 0 0 0-2.1 5.252 99.81 99.81 0 0 0 1.726 3.8 4 4 0 1 0 7.211-3.463 89.641 89.641 0 0 1-1.583-3.487 4 4 0 0 0-5.254-2.102ZM108 168a20 20 0 1 0 20 20 20.023 20.023 0 0 0-20-20Zm0 32a12 12 0 1 1 12-12 12.013 12.013 0 0 1-12 12Z" fill="#f0b800" class="fill-000000"></path></svg>