<svg width="934" height="934" viewBox="0 0 934 934" fill="none" xmlns="http://www.w3.org/2000/svg">
<path d="M771.013 349.147C771.013 385.6 741.461 415.152 705.008 415.152C668.549 415.152 638.997 385.6 638.997 349.147C638.997 312.693 668.549 283.141 705.008 283.141C741.461 283.141 771.013 312.693 771.013 349.147Z" fill="#F0B800"/>
<path d="M705 437.027C663.26 437.027 627.197 465.027 616.672 505.199V506.542V577.625H796.245V528.27C796.245 477.948 755.328 437.025 705 437.025V437.027Z" fill="#F0B800"/>
<path d="M228.333 437.027C178.011 437.027 137.088 477.944 137.088 528.272V577.627L316.661 577.621V506.539V505.195C306.208 465.023 270.068 437.023 228.333 437.023V437.027Z" fill="#F0B800"/>
<path d="M294.333 349.147C294.333 385.6 264.781 415.152 228.323 415.152C191.869 415.152 162.317 385.6 162.317 349.147C162.317 312.693 191.869 283.141 228.323 283.141C264.781 283.141 294.333 312.693 294.333 349.147Z" fill="#F0B800"/>
<path d="M466.667 378.413C396.031 378.413 338.536 435.908 338.536 506.544V577.627H594.789V506.544C594.789 435.908 537.295 378.413 466.659 378.413H466.667Z" fill="#F0B800"/>
<path d="M560.453 262.747C560.453 314.544 518.464 356.528 466.672 356.528C414.88 356.528 372.891 314.544 372.891 262.747C372.891 210.955 414.88 168.965 466.672 168.965C518.464 168.965 560.453 210.955 560.453 262.747Z" fill="#F0B800"/>
</svg>
