<svg width="343" height="286" viewBox="0 0 343 286" fill="none" xmlns="http://www.w3.org/2000/svg">
<path d="M76.013 78.6751C78.5145 84.9272 82.4891 93.454 87.2048 98.5749C90.533 102.188 96.6029 104.829 103.634 107.885C110.353 110.808 117.971 114.119 124.223 118.791C126.903 120.788 130.049 121.766 133.179 121.766C137.212 121.766 141.219 120.142 144.164 116.99C146.814 114.159 148.273 110.46 148.273 106.576C148.273 103.432 147.32 100.414 145.514 97.8439C139.109 88.7348 131.598 80.7213 122.556 73.3477C121.646 72.6035 121.247 71.4783 121.493 70.3333C121.608 69.7926 122.05 68.4919 123.648 68.069C145.77 62.2219 161.308 59.2633 167.4 59.746C173.533 60.2327 188.784 64.5757 209.245 71.6618C215.525 73.8284 222.369 71.199 225.765 65.7248L233.403 69.2759C235.236 70.1297 237.161 70.5387 239.056 70.5387C243.673 70.5387 248.111 68.1168 250.591 63.8356C251.782 61.7808 252.41 59.4347 252.41 57.0508C252.41 53.0729 250.676 49.3182 247.649 46.7488C230.58 32.3054 199.261 7.77136 181.294 5.75405C166.608 4.1062 134.52 6.75954 106.207 9.1036C89.5638 10.4801 75.1887 11.6691 67.8367 11.6691C48.5636 11.6651 3.84688 0.202121 3.40032 0.0861902C1.94338 -0.288865 0.460651 0.594904 0.0880281 2.06121C-0.284595 3.52752 0.593496 5.01975 2.05045 5.39477C3.91179 5.87356 47.8815 17.1432 67.8417 17.1432C75.418 17.1432 89.8961 15.9461 106.658 14.5597C133.335 12.3513 166.532 9.6042 180.695 11.1962C197.853 13.1233 230.786 39.6325 244.147 50.9376C245.941 52.4618 246.97 54.6882 246.97 57.0483C246.97 58.4627 246.597 59.8532 245.889 61.0721C243.814 64.6551 239.43 66.0436 235.691 64.3L227.698 60.5834C227.825 59.8153 227.894 59.0393 227.894 58.2592C227.894 53.3416 225.419 48.8468 221.272 46.2376C207.013 37.2741 188.222 26.1386 179.672 24.0059C167.061 20.8578 142.23 23.8183 141.179 23.944C139.687 24.1256 138.622 25.4901 138.803 26.9903C138.983 28.4925 140.339 29.5658 141.832 29.3823C142.079 29.3524 166.721 26.4158 178.362 29.3204C184.402 30.8286 198.991 38.6869 218.387 50.8821C220.933 52.4821 222.451 55.2411 222.451 58.2573C222.451 59.2528 222.281 60.2403 221.946 61.1859C220.356 65.6327 215.454 68.0049 211.02 66.4743C196.036 61.2855 176.382 54.9573 167.833 54.2791C159.27 53.6088 138.327 58.5204 122.269 62.7655C119.181 63.5855 116.846 66.0413 116.176 69.1755C115.5 72.3295 116.634 75.5573 119.131 77.5981C127.784 84.652 134.961 92.3091 141.074 101.003C142.226 102.643 142.835 104.568 142.835 106.573C142.835 109.054 141.901 111.419 140.204 113.23C136.86 116.809 131.385 117.304 127.47 114.387C120.713 109.338 112.788 105.892 105.796 102.852C99.602 100.159 93.7505 97.6152 91.2031 94.8482C87.9622 91.331 84.3627 84.8592 81.0657 76.624C79.1628 71.8739 74.6531 68.8055 69.5785 68.8055H2.72162C1.2191 68.8055 0 70.0324 0 71.5446C0 73.0568 1.21905 74.2837 2.72162 74.2837H69.5735C72.416 74.2877 74.9433 76.0093 76.012 78.6726L76.013 78.6751Z" fill="#F0B800"/>
<path d="M340.579 280.533L285.845 274.393C289.429 254.387 289.45 234.153 285.908 214.15H340.277C341.779 214.15 342.998 212.923 342.998 211.411C342.998 209.898 341.779 208.671 340.277 208.671H284.563C283.093 205.661 280.004 203.644 276.538 203.644H265.07C262.602 203.644 260.222 204.686 258.541 206.497C257.542 207.576 256.836 208.883 256.461 210.281H249.083C248.084 210.281 247.175 209.643 246.82 208.691C244.614 202.798 240.084 192.012 234.542 185.987C231.214 182.376 225.142 179.737 218.111 176.68C211.391 173.757 203.772 170.446 197.522 165.779C191.438 161.235 182.95 161.959 177.705 167.447C177.662 167.489 177.618 167.531 177.576 167.577C172.686 172.81 172.103 180.835 176.193 186.665C182.599 195.796 190.122 203.829 199.19 211.229C200.098 211.967 200.497 213.09 200.253 214.231C200.013 215.356 199.206 216.202 198.092 216.496C176.333 222.261 160.386 225.299 154.34 224.817C148.172 224.332 133.317 220.102 112.509 212.909C106.221 210.742 99.3725 213.372 95.9812 218.846L88.3359 215.289C82.0364 212.358 74.6504 214.696 71.1561 220.731C69.9608 222.794 69.3304 225.14 69.3304 227.514C69.3304 231.498 71.0689 235.252 74.0977 237.816C91.1471 252.257 122.437 276.789 140.447 278.811C143.631 279.168 147.631 279.323 152.235 279.323C168.868 279.323 193.363 277.296 215.535 275.463C232.18 274.086 246.555 272.897 253.911 272.897C254.704 272.897 255.558 272.917 256.464 272.957C256.405 273.294 256.351 273.634 256.29 273.969C255.81 276.59 256.508 279.271 258.205 281.322C259.907 283.381 262.409 284.56 265.071 284.56H276.538C279.92 284.56 282.933 282.639 284.445 279.754L339.976 285.984C340.077 285.996 340.18 286 340.281 286C341.649 286 342.828 284.965 342.983 283.564C343.15 282.058 342.073 280.703 340.579 280.536V280.533ZM215.086 269.998C188.411 272.204 155.216 274.949 141.048 273.361C123.846 271.43 90.9473 244.925 77.6013 233.618C75.8054 232.098 74.7746 229.871 74.7746 227.509C74.7746 226.103 75.1513 224.712 75.8609 223.485C77.9343 219.904 82.3172 218.518 86.0536 220.258L94.0541 223.98C93.9272 224.748 93.8579 225.524 93.8579 226.304C93.8579 231.222 96.3297 235.713 100.473 238.32C112.126 245.653 133.027 258.293 142.08 260.554C146.423 261.637 152.218 261.996 157.993 261.996C168.973 261.996 179.877 260.697 180.564 260.613C182.057 260.432 183.121 259.067 182.941 257.565C182.761 256.063 181.405 254.994 179.912 255.173C179.664 255.203 155.031 258.14 143.387 255.235C137.309 253.719 122.719 245.861 103.356 233.673C100.817 232.075 99.3001 229.32 99.3001 226.304C99.3001 225.308 99.4706 224.321 99.8075 223.373C101.391 218.926 106.299 216.556 110.742 218.086C125.759 223.279 145.439 229.607 153.915 230.275C162.539 230.948 183.452 226.034 199.474 221.789C202.567 220.973 204.904 218.517 205.575 215.377C206.249 212.221 205.116 208.995 202.616 206.962C193.944 199.886 186.754 192.211 180.639 183.497C178.064 179.827 178.409 174.776 181.443 171.432C181.479 171.396 181.515 171.362 181.549 171.326C184.893 167.745 190.363 167.252 194.276 170.177C201.036 175.222 208.961 178.668 215.952 181.708C222.149 184.403 228.002 186.947 230.55 189.71C235.644 195.246 240.062 206.178 241.725 210.621C242.875 213.693 245.833 215.758 249.083 215.758H256.551C259.526 232.941 259.789 250.333 257.335 267.513C256.116 267.45 254.965 267.416 253.91 267.416C246.33 267.414 231.852 268.611 215.086 269.997L215.086 269.998Z" fill="#F0B800"/>
<path d="M97.7624 193.345C98.0657 194.308 98.8724 195.027 99.8596 195.21L132.588 201.319C132.753 201.349 132.919 201.365 133.084 201.365C133.809 201.365 134.515 201.071 135.032 200.539L181.49 152.631C183.803 154.858 186.878 156.083 190.028 156.083C190.725 156.083 191.427 156.023 192.123 155.899C200.381 154.463 215.489 150.76 223.898 142.086C225.958 139.961 227.527 137.555 228.588 134.92C232.646 133.843 236.364 132.018 239.656 129.474C246.055 124.523 249.907 117.544 250.505 109.826C251.134 101.8 248.041 93.804 242.025 87.891C236.721 82.6721 229.573 79.4643 221.9 78.8576C214.238 78.2491 206.769 80.262 200.716 84.5351C187.67 77.5088 175.252 78.1773 167.248 86.4344C158.841 95.0986 155.523 110.39 154.292 118.737C153.723 122.633 155.033 126.591 157.798 129.36L138.739 149.014L129.464 149.148C127.966 149.17 126.766 150.407 126.782 151.915L126.858 159.653L119.169 159.765C117.67 159.787 116.471 161.024 116.487 162.532L116.562 170.27L108.879 170.382C107.38 170.404 106.183 171.639 106.197 173.147L106.282 182.481L98.4103 190.597C97.7066 191.327 97.4588 192.38 97.7621 193.344L97.7624 193.345ZM132.152 195.667L122.227 193.814L171.591 142.918L177.589 148.811L132.152 195.667ZM228.142 115.194C225.936 109.126 222.049 102.953 216.895 97.3374C218.055 97.1558 219.254 97.104 220.473 97.1997C223.896 97.471 227.024 98.8396 229.278 101.052C231.425 103.163 232.492 105.766 232.285 108.387C232.079 111.041 230.553 113.484 228.143 115.194L228.142 115.194ZM183.663 105.834C182.943 105.126 182.549 104.182 182.549 103.175C182.549 102.213 182.914 101.298 183.566 100.607C184.256 99.8831 185.183 99.4762 186.178 99.4602C187.172 99.4403 188.109 99.8193 188.819 100.514L189.429 101.114C189.142 102.387 188.942 103.676 188.843 104.96C188.678 107.055 188.765 109.126 189.074 111.155L183.663 105.834ZM203.154 89.5194C208.268 85.6392 214.77 83.7938 221.474 84.3245C227.879 84.8292 233.826 87.4885 238.222 91.8135C243.081 96.5875 245.58 102.997 245.081 109.401C244.605 115.554 241.501 121.142 236.343 125.134C234.43 126.612 232.341 127.797 230.097 128.681C230.349 126.133 230.214 123.464 229.677 120.687C234.317 118.098 237.334 113.715 237.713 108.819C238.05 104.554 236.406 100.404 233.082 97.1327C229.919 94.0266 225.591 92.1114 220.899 91.7402C217.286 91.4569 213.743 92.1012 210.645 93.6034C209.565 94.1301 208.546 94.7565 207.618 95.4607C204.084 98.134 201.961 101.867 201.64 105.97C201.325 109.984 202.776 113.93 205.729 117.106C205.801 117.194 205.876 117.28 205.959 117.362L208.045 119.404C208.764 120.113 209.159 121.058 209.159 122.07C209.159 123.045 208.786 123.965 208.106 124.667C207.42 125.375 206.502 125.772 205.517 125.786C204.512 125.792 203.595 125.423 202.883 124.725L200.964 122.84C200.853 122.728 200.74 122.616 200.633 122.499C200.617 122.481 200.601 122.465 200.586 122.449C196.024 117.699 193.781 111.644 194.272 105.392C194.385 103.93 194.653 102.463 195.067 101.035C196.32 96.7439 198.933 92.9055 202.657 89.9133C202.818 89.7776 202.982 89.6519 203.155 89.5203L203.154 89.5194ZM110.96 185.507C111.462 184.989 111.741 184.293 111.735 183.568L111.664 175.828L119.349 175.716C120.848 175.694 122.047 174.457 122.031 172.949L121.956 165.211L129.645 165.099C131.143 165.077 132.343 163.84 132.327 162.332L132.252 154.594L139.94 154.482C140.66 154.472 141.346 154.175 141.849 153.656L161.69 133.194L167.692 139.089L115.779 192.612L105.86 190.76L110.96 185.507Z" fill="#F0B800"/>
</svg>
